<svg width="20" height="20" viewBox="0 0 20 20" fill="none" xmlns="http://www.w3.org/2000/svg">
<rect width="20" height="20" rx="10" fill="white"/>
<g clip-path="url(#clip0_15940_267669)">
<g clip-path="url(#clip1_15940_267669)">
<path fill-rule="evenodd" clip-rule="evenodd" d="M8.44361 15.6935C8.17164 15.8778 7.85376 15.9828 7.52551 15.9968C7.14322 15.9898 6.77766 15.8387 6.50203 15.5738C6.2264 15.3088 6.06104 14.9494 6.03906 14.5677L7.58016 13.6523L9.97104 14.7235L8.44361 15.6935Z" fill="#72A3B6"/>
<path fill-rule="evenodd" clip-rule="evenodd" d="M9.3546 11.7536L8.21244 11.2508C7.70147 11.0268 7.22056 10.8328 7.22056 10.2726C7.21301 10.1635 7.22912 10.054 7.26779 9.95167C7.30646 9.84934 7.36678 9.75656 7.44462 9.67969L9.85738 10.7399L9.26443 11.0896C9.09775 11.188 8.99119 11.2782 8.99119 11.4066C8.99119 11.535 9.14693 11.6607 9.3628 11.7536H9.3546Z" fill="#96CE8E"/>
<path fill-rule="evenodd" clip-rule="evenodd" d="M10.4748 6.48372L9.30256 7.19688C9.19873 7.25973 9.05663 7.3581 9.05663 7.51658C9.05663 7.67507 9.32988 7.82808 9.5676 7.94284L8.10575 7.29798C7.67675 7.10671 7.24229 6.89359 7.24229 6.37169C7.23936 6.17699 7.29662 5.98613 7.40624 5.8252L10.5759 3.89062C10.7977 4.0126 10.9833 4.19111 11.1139 4.40803C11.2444 4.62495 11.3152 4.87256 11.3191 5.1257C11.321 5.40976 11.2428 5.68862 11.0935 5.93027C10.9441 6.17192 10.7297 6.36658 10.4748 6.49192V6.48372Z" fill="#72A3B6"/>
<path fill-rule="evenodd" clip-rule="evenodd" d="M12.9633 8.76653L12.6737 8.9332L10.25 7.86482L13.0644 6.16797C13.2869 6.29063 13.4734 6.46947 13.6052 6.68665C13.7371 6.90383 13.8097 7.15177 13.8158 7.40577C13.8203 7.69139 13.7423 7.97226 13.5911 8.21461C13.4398 8.45696 13.2219 8.6505 12.9633 8.77199V8.76653Z" fill="#96CE8E"/>
<path fill-rule="evenodd" clip-rule="evenodd" d="M10.9148 10.8281L12.3494 11.4566C12.8959 11.697 13.0516 11.9812 13.0516 12.3364C13.0469 12.4416 13.0201 12.5446 12.9731 12.6387C12.926 12.7328 12.8597 12.816 12.7784 12.8829L10.3711 11.8118L10.7755 11.5877C11.1198 11.3937 11.2373 11.2817 11.2373 11.156C11.2373 11.0303 11.1526 10.9401 10.9176 10.8309L10.9148 10.8281Z" fill="#72A3B6"/>
<path fill-rule="evenodd" clip-rule="evenodd" d="M13.4773 16.1091C12.8398 15.6495 12.15 15.267 11.4225 14.9697L7.77744 13.3494C6.85933 12.9395 6.25 12.3985 6.25 11.4804C6.25 10.5623 6.68173 10.1579 7.24188 9.80265L7.44408 9.67969C7.36624 9.75656 7.30592 9.84934 7.26725 9.95167C7.22857 10.054 7.21246 10.1635 7.22001 10.2726C7.22001 10.8328 7.70093 11.0268 8.21189 11.2508L12.4527 13.1198C13.1959 13.4395 13.8681 13.986 13.8681 14.9096C13.8772 15.3421 13.7395 15.765 13.4773 16.1091Z" fill="#4C9847"/>
<path fill-rule="evenodd" clip-rule="evenodd" d="M13.0398 12.7143L12.7666 12.8809C12.8479 12.8141 12.9142 12.7309 12.9613 12.6367C13.0083 12.5426 13.0351 12.4396 13.0398 12.3345C13.0398 11.9792 12.8732 11.6951 12.3376 11.4546L7.80174 9.46266C6.88364 9.05007 6.31257 8.52817 6.31257 7.61553C6.30956 7.2459 6.40877 6.88262 6.59924 6.56582C6.7897 6.24902 7.06401 5.99102 7.39188 5.82031C7.28225 5.98125 7.225 6.1721 7.22793 6.3668C7.22793 6.8887 7.66239 7.10183 8.09138 7.2931L12.4988 9.2386C13.3049 9.59655 13.9552 10.1376 13.9552 11.1103C13.9645 11.4368 13.8825 11.7595 13.7184 12.0419C13.5542 12.3243 13.3145 12.5553 13.0262 12.7088L13.0398 12.7143Z" fill="#296085"/>
</g>
</g>
<defs>
<clipPath id="clip0_15940_267669">
<rect width="13.3333" height="13.3333" fill="white" transform="translate(3.33203 3.33203)"/>
</clipPath>
<clipPath id="clip1_15940_267669">
<rect width="7.93502" height="12.2222" fill="white" transform="translate(6.03125 3.88672)"/>
</clipPath>
</defs>
</svg>
