<svg width="20" height="20" viewBox="0 0 20 20" fill="none" xmlns="http://www.w3.org/2000/svg">
<rect width="20" height="20" rx="10" fill="white"/>
<g clip-path="url(#clip0_15940_465384)">
<g clip-path="url(#clip1_15940_465384)">
<path d="M3.90353 9.97621C3.89866 9.97774 3.8944 9.98077 3.89137 9.98488C3.88835 9.989 3.88672 9.99397 3.88672 9.99908C3.88672 10.0042 3.88835 10.0091 3.89137 10.0133C3.8944 10.0174 3.89866 10.0204 3.90353 10.0219L5.78889 11.2672L6.32882 8.72656L3.90353 9.97621Z" fill="#E72511"/>
<path d="M15.0774 8.72656H14.5984C14.569 8.72838 14.5402 8.73577 14.5135 8.74833L12.1187 9.98057C12.0969 9.98057 12.0948 10.0111 12.1187 10.0263L13.9714 11.2455C13.9968 11.2597 14.0251 11.2679 14.0542 11.2694H14.5309C14.5571 11.2694 14.5592 11.2694 14.5309 11.2455L12.6369 10.0002L15.0774 8.74833C15.097 8.73745 15.0948 8.72656 15.0774 8.72656Z" fill="#F08300"/>
<path d="M14.0479 8.72656H10.7235L10.1836 11.2694H13.5037C13.5298 11.2694 13.532 11.2694 13.5037 11.2455L11.6139 10.0002L14.0414 8.74833C14.0762 8.73745 14.0741 8.72656 14.0479 8.72656Z" fill="#E72511"/>
<path d="M16.09 8.72656H15.6132C15.5837 8.72799 15.5549 8.7354 15.5283 8.74833L13.1335 9.98057C13.1117 9.98057 13.1117 10.0111 13.1335 10.0263L14.9884 11.2455C15.0129 11.2599 15.0406 11.2681 15.069 11.2694H15.5479C15.5719 11.2694 15.5762 11.2694 15.5479 11.2455L13.656 10.0002L16.0857 8.74833C16.1161 8.73745 16.114 8.72656 16.09 8.72656Z" fill="#FABE00"/>
<path d="M13.9032 7.06343H6.08306C5.89698 7.05444 5.71363 7.11093 5.56487 7.22309C5.41612 7.33525 5.31137 7.49599 5.26883 7.67737C5.24951 7.76355 5.25569 7.85349 5.28662 7.93622C5.31755 8.01895 5.37188 8.09089 5.443 8.14327L8.25363 9.99815L13.9141 7.0852C13.9293 7.07213 13.9271 7.06343 13.9032 7.06343Z" fill="#E72511"/>
<path d="M12.6626 12.9069L8.2562 9.99609L4.65746 11.8532C4.56657 11.9009 4.48656 11.9669 4.42248 12.0471C4.3584 12.1273 4.31165 12.2199 4.28517 12.3191C4.21115 12.6565 4.40056 12.9308 4.83816 12.9308H12.6583C12.6844 12.9308 12.6844 12.9199 12.6626 12.9069Z" fill="#E72511"/>
</g>
</g>
<defs>
<clipPath id="clip0_15940_465384">
<rect width="13.3333" height="13.3333" fill="white" transform="translate(3.33203 3.33203)"/>
</clipPath>
<clipPath id="clip1_15940_465384">
<rect width="12.2222" height="5.86945" fill="white" transform="translate(3.88672 7.0625)"/>
</clipPath>
</defs>
</svg>
