<svg width="49" height="48" viewBox="0 0 49 48" fill="none" xmlns="http://www.w3.org/2000/svg">
<rect x="0.5" width="48" height="48" rx="24" fill="#F6F7FC"/>
<g clip-path="url(#clip0_15872_41573)">
<path d="M18.7771 29.8043L18.7209 29.8565C18.3621 30.2575 17.9256 30.5814 17.4379 30.8087C16.9502 31.036 16.4214 31.1619 15.8836 31.1787C13.7777 31.1787 12.2465 29.5953 12.2465 27.4131C12.2465 25.2309 13.7777 23.6515 15.8836 23.6515C16.4214 23.6684 16.9502 23.7942 17.4379 24.0215C17.9256 24.2488 18.3621 24.5727 18.7209 24.9737L18.7771 25.0299L20.1315 23.3863L20.0953 23.3461C19.6041 22.7188 18.9745 22.2136 18.2558 21.8699C17.537 21.5262 16.7485 21.3533 15.9519 21.3648C14.3726 21.3303 12.8384 21.8929 11.6558 22.9401C10.4866 24.1363 9.83203 25.7425 9.83203 27.4151C9.83203 29.0877 10.4866 30.6939 11.6558 31.8901C12.8374 32.9391 14.3723 33.5019 15.9519 33.4654C16.7481 33.4768 17.5362 33.3042 18.2548 32.9613C18.9734 32.6183 19.6033 32.1142 20.0953 31.4882L20.1315 31.444L18.7771 29.8043Z" fill="#004785"/>
<path d="M23.8991 21.543H21.5039V33.2337H23.8991V21.543Z" fill="#004785"/>
<path d="M33.2773 30.6859C32.7532 31.0408 32.1413 31.2438 31.509 31.2726C30.7334 31.2726 30.3878 30.8707 30.3878 29.9544V23.7534H32.8272V21.5511H30.3878V17.9141L28.0368 19.168V21.5511H26.0273V23.7534H28.0368V30.3523C28.0368 32.1487 29.1017 33.3745 30.6932 33.4066C31.4394 33.4454 32.18 33.2592 32.8191 32.8721H32.8432L33.438 30.6095L33.2773 30.6859Z" fill="#004785"/>
<path d="M37.653 21.543H35.2578V33.2337H37.653V21.543Z" fill="#004785"/>
<path d="M39.0635 19.4905C37.9914 17.9624 36.5671 16.715 34.911 15.8538C33.2548 14.9926 31.4156 14.543 29.549 14.543C27.6823 14.543 25.8431 14.9926 24.1869 15.8538C22.5308 16.715 21.1064 17.9624 20.0344 19.4905L19.9219 19.6472H22.6748L22.7069 19.6151C23.5851 18.6812 24.6452 17.937 25.8219 17.4282C26.9986 16.9195 28.267 16.6571 29.549 16.6571C30.8309 16.6571 32.0993 16.9195 33.276 17.4282C34.4527 17.937 35.5128 18.6812 36.391 19.6151L36.4231 19.6472H39.176L39.0635 19.4905Z" fill="#ED1C2E"/>
</g>
<defs>
<clipPath id="clip0_15872_41573">
<rect width="29.3333" height="18.9126" fill="white" transform="translate(9.83203 14.543)"/>
</clipPath>
</defs>
</svg>
