<svg width="49" height="48" viewBox="0 0 49 48" fill="none" xmlns="http://www.w3.org/2000/svg">
<rect x="0.5" width="48" height="48" rx="24" fill="#F6F7FC"/>
<path d="M29.6939 10.8281L24.4974 13.4416L19.3008 10.8281L24.4974 20.7047L29.6939 10.8281Z" fill="#FFB71B"/>
<path d="M31.5494 18.4292L35.2569 16.8793V11.6523L28.8144 14.4178L25.2284 21.1642C26.6079 21.3233 27.8744 22.0039 28.7683 23.0666C29.6622 24.1294 30.1158 25.4937 30.0362 26.8801C29.9565 28.2665 29.3497 29.57 28.3399 30.5234C27.3302 31.4767 25.9941 32.0079 24.6054 32.0079C23.2168 32.0079 21.8807 31.4767 20.871 30.5234C19.8612 29.57 19.2544 28.2665 19.1747 26.8801C19.0951 25.4937 19.5486 24.1294 20.4425 23.0666C21.3364 22.0039 22.6029 21.3233 23.9824 21.1642L20.3965 14.4178L13.9844 11.6523V16.8793L17.7526 18.4292C16.1183 19.8577 14.9588 21.7509 14.4288 23.8559C13.8988 25.9608 14.0235 28.1773 14.7865 30.2094C15.5494 32.2416 16.9142 33.9926 18.6986 35.2287C20.4829 36.4647 22.6019 37.127 24.7726 37.127C26.9432 37.127 29.0622 36.4647 30.8465 35.2287C32.6309 33.9926 33.9957 32.2416 34.7586 30.2094C35.5216 28.1773 35.6464 25.9608 35.1164 23.8559C34.5864 21.7509 33.4268 19.8577 31.7925 18.4292H31.5494Z" fill="#FFB71B"/>
</svg>
