<svg width="49" height="48" viewBox="0 0 49 48" fill="none" xmlns="http://www.w3.org/2000/svg">
<rect x="0.5" width="48" height="48" rx="24" fill="#F6F7FC"/>
<g clip-path="url(#clip0_15872_32183)">
<path d="M24.5045 13.6367C15.6636 13.6367 9.83594 18.2764 9.83594 24.0029C9.83594 29.7294 15.6599 34.3653 24.5045 34.3653C33.3491 34.3653 39.1693 29.7219 39.1693 24.0029C39.1693 18.2839 33.3416 13.6367 24.5045 13.6367Z" fill="white"/>
<path d="M27.1274 27.8736C29.6458 27.4351 38.1494 25.6849 37.1 20.8354C36.7253 19.0927 34.9339 17.1776 32.228 15.8472C29.7801 14.7954 27.138 14.2719 24.474 14.3106C16.2703 14.3106 10.5625 18.6505 10.5625 24.0022C10.5625 27.7274 13.3321 30.9617 17.7881 32.5807C18.7213 30.0922 22.484 28.6756 27.1274 27.8736Z" fill="#007DC5"/>
<path d="M24.5043 29.5912C20.8203 30.0522 19.1339 31.2402 18.0508 32.6831C20.1132 33.3684 22.2749 33.7078 24.4481 33.6875C32.6556 33.6875 38.3634 29.3514 38.3634 24.0034C38.3633 23.5343 38.3194 23.0663 38.2322 22.6055C37.9736 28.8866 28.5444 29.089 24.5043 29.5912Z" fill="url(#paint0_linear_15872_32183)"/>
<path d="M16.5438 18.9453H13.793L13.8229 19.024C13.9323 19.4534 13.969 19.898 13.9316 20.3395C13.9316 20.4519 13.9316 26.7106 13.9316 26.7106H13.9841C13.9841 26.7106 15.2396 26.7555 16.4164 26.7555C18.8749 26.7555 20.5388 25.0916 20.5388 22.6106C20.5239 20.3769 18.9611 18.9453 16.5438 18.9453ZM15.1084 19.6386C15.2658 19.6386 15.753 19.5899 16.1015 19.5899C18.204 19.5899 19.1822 20.6093 19.1822 22.7942C19.1822 25.0428 18.3127 26.1671 16.525 26.1671C15.2133 26.1671 15.1084 26.1034 15.1084 25.3277V19.6386Z" fill="white"/>
<path d="M27.9112 26.6365C27.87 26.1793 27.8512 25.887 27.8512 25.6059V22.8888H26.547L26.5883 22.975C26.6922 23.2394 26.737 23.5234 26.7194 23.807C26.7194 23.8257 26.7194 25.6808 26.6745 26.1343C26.3421 26.2072 26.0028 26.2437 25.6626 26.243C23.5863 26.243 22.5332 25.0512 22.5332 22.7052C22.5332 20.9138 23.7175 19.5758 25.4152 19.4521C26.2351 19.3667 27.0565 19.6003 27.7088 20.1042L27.8025 20.1867V19.0886H27.7575C27.1685 18.9612 26.5687 18.8896 25.9661 18.875C22.968 18.875 21.1953 20.4453 21.1953 23.0799C21.1953 25.8832 23.3727 26.8839 25.4115 26.8839C26.2319 26.8865 27.0513 26.8263 27.8625 26.704H27.915L27.9112 26.6365Z" fill="white"/>
<path d="M32.5779 22.4382C32.9884 22.3391 33.3546 22.1072 33.6196 21.7785C33.8846 21.4498 34.0336 21.0427 34.0433 20.6205C34.0433 19.5712 33.0951 18.9453 31.5098 18.9453H29.1562V19.0128C29.216 19.3516 29.2399 19.6958 29.2275 20.0396V26.7593H29.2837C29.2837 26.7593 30.2094 26.7405 31.3449 26.7405C33.3237 26.7405 34.4593 25.8823 34.4593 24.3832C34.4743 23.4576 33.706 22.6818 32.5779 22.4382ZM30.4155 22.813H31.0226C32.4243 22.813 33.1363 23.3639 33.1363 24.4507C33.1363 25.5375 32.5254 26.1522 31.2625 26.1522C30.6553 26.1522 30.4155 25.931 30.4155 25.3651V22.813ZM30.4155 19.5487H31.1838C32.3943 19.5487 32.9115 19.9235 32.9115 20.7742C32.9115 21.7486 32.2781 22.2058 30.9139 22.2058H30.4117L30.4155 19.5487Z" fill="white"/>
</g>
<defs>
<linearGradient id="paint0_linear_15872_32183" x1="17.7172" y1="28.1446" x2="38.532" y2="28.1446" gradientUnits="userSpaceOnUse">
<stop offset="0.1" stop-color="#007DC5"/>
<stop offset="0.23" stop-color="#0083CB"/>
<stop offset="0.4" stop-color="#0095DA"/>
<stop offset="0.75" stop-color="#00B49D"/>
<stop offset="1" stop-color="#72BF44"/>
</linearGradient>
<clipPath id="clip0_15872_32183">
<rect width="29.3333" height="20.7248" fill="white" transform="translate(9.83203 13.6367)"/>
</clipPath>
</defs>
</svg>
