<svg width="49" height="48" viewBox="0 0 49 48" fill="none" xmlns="http://www.w3.org/2000/svg">
<g id="list/img_bank_48">
<rect x="0.5" width="48" height="48" rx="24" fill="#F6F7FC"/>
<g id="BankIcon">
<g id="Frame 694">
<path id="Vector" d="M38.6585 24.2807L38.4069 24.1069C37.9148 23.6229 37.3305 23.2617 36.6951 23.0487C36.0598 22.8358 35.3891 22.7763 34.7302 22.8745C33.5832 22.977 32.478 23.3876 31.5148 24.069V24.0086C31.5238 23.5332 31.5565 23.0587 31.6127 22.5872C31.6546 22.0958 31.7035 21.6043 31.7035 21.1356C31.7184 20.6868 31.6494 20.2394 31.5008 19.82C31.483 19.7704 31.4511 19.7283 31.4096 19.6997C31.3681 19.6711 31.3192 19.6577 31.2702 19.6613C30.7456 19.7146 30.2391 19.8955 29.7883 20.1905L29.6764 20.4476C29.6746 21.1671 29.6019 21.8843 29.4598 22.5872C29.4443 22.6488 29.4256 22.7093 29.4038 22.7686C29.2292 24.5782 29.2292 26.4026 29.4038 28.2122C29.4038 28.3634 29.7044 28.5978 29.9141 28.6885C30.3944 28.7013 30.8714 28.6007 31.3121 28.3937H31.4729C31.5049 28.3891 31.5358 28.3776 31.5636 28.3597C31.5913 28.3418 31.6154 28.318 31.6344 28.2897C31.6534 28.2614 31.6668 28.2292 31.6739 28.1951C31.681 28.1609 31.6815 28.1256 31.6756 28.0913V27.6452C31.8668 26.8691 32.2474 26.1629 32.7773 25.6003C33.3073 25.0377 33.9673 24.6394 34.6882 24.4471C35.0486 24.3627 35.4231 24.3826 35.7741 24.5047C36.1251 24.6268 36.4401 24.8469 36.6874 25.1427C36.8474 25.8943 36.7295 26.6838 36.3588 27.3428C35.8367 28.2673 35.0259 28.9593 34.0731 29.2934C32.9535 29.7249 31.7643 29.905 30.5782 29.8226C30.5152 29.7848 29.285 28.8851 29.285 28.8851C28.1479 27.9457 26.9141 27.1516 25.6083 26.5187C25.3082 26.3376 25.027 26.1221 24.7695 25.876L24.6507 25.7626C23.9517 25.1427 22.5887 24.1749 21.5052 23.3962L20.9251 22.9652V22.8367C20.9251 22.7989 21.624 22.3604 21.624 22.3604C22.1556 22.0764 22.6532 21.7235 23.1059 21.3095L23.2387 21.2263L25.6013 19.7747C27.8661 18.4289 30.4384 16.9017 31.7874 15.3896L31.8503 15.1552V14.951C31.9304 14.6728 31.9304 14.3749 31.8503 14.0967C31.8415 14.0481 31.8195 14.0035 31.7871 13.9685C31.7547 13.9335 31.7135 13.9097 31.6686 13.9001C30.6131 13.7867 29.2571 14.4672 28.0198 15.7222C27.791 15.9501 27.5347 16.1433 27.2579 16.2968L27.0692 16.4027C25.6712 17.2419 22.6306 19.3059 21.0229 20.4249C21.1749 18.1567 21.4479 15.8999 21.8407 13.6658L21.7988 13.4011L21.631 13.0685L21.5052 12.8265C21.2632 12.6989 20.9843 12.6798 20.7293 12.7736L20.4078 12.9021L19.9814 13.0685C19.9408 13.0778 19.9029 13.0979 19.8712 13.1269C19.8395 13.1559 19.8149 13.193 19.7997 13.2348C18.9289 15.7911 18.4039 18.4699 18.2409 21.1885C17.0624 20.3887 15.8444 19.6593 14.5922 19.0035H14.5083C14.2022 18.9209 13.913 18.7774 13.6555 18.5801L13.0754 18.1718L12.1806 17.5519L11.943 17.4914C11.4217 17.6696 10.9585 18.0054 10.6079 18.4591C10.5812 18.5071 10.5668 18.5619 10.566 18.6179C10.5725 18.6949 10.5866 18.7709 10.6079 18.8447L10.6499 19.0413L10.6918 19.1623C11.4845 19.8814 12.3554 20.4932 13.2851 20.9844L14.5083 21.6875L16.3886 22.7913L16.7101 23.0711L16.9268 23.2072H16.9688C16.4655 23.5625 13.5577 25.6719 13.5577 25.6719L11.7263 27.0328C11.3907 27.2318 11.0453 27.411 10.6918 27.5696C10.3518 27.6983 10.0647 27.9527 9.88096 28.2878L9.83203 28.4012L9.88096 28.4769L10.0208 28.5903L10.2025 28.7188L10.4052 28.8624L10.5869 28.9002C11.1688 28.8149 11.7307 28.6123 12.2436 28.303C13.0474 27.9174 15.2283 26.496 16.1649 25.8911L16.5633 25.6265C16.7529 25.5988 16.9293 25.5061 17.0666 25.3619C17.3303 25.1511 17.611 24.9663 17.9054 24.81C17.9054 24.81 18.0592 24.7193 18.192 24.6437V24.7646C18.1757 27.1302 18.3487 29.4929 18.7092 31.8262V31.9018C18.9252 32.42 19.087 32.9627 19.1916 33.5197L19.541 34.805L19.6459 34.926C20.0172 35.1666 20.4434 35.2897 20.8761 35.2813H20.981L21.0439 35.1226C21.0784 34.9283 21.0948 34.7307 21.0928 34.5329C21.0928 34.2985 21.0928 34.0414 21.0928 33.7239V33.2627C20.96 31.1079 20.8342 27.9703 20.8342 25.929V25.7626L22.6516 27.0025C25.1679 28.7641 28.9425 31.4406 31.2702 32.1437C31.328 32.1624 31.3892 32.1645 31.448 32.1499C31.5068 32.1353 31.5611 32.1045 31.6057 32.0605L31.9622 31.8186H32.0251C32.1037 31.7498 32.1661 31.6619 32.2074 31.5621C32.2487 31.4622 32.2677 31.3533 32.2627 31.244C34.1989 31.1457 36.904 30.3367 38.351 28.371C38.8678 27.6586 39.1528 26.7816 39.1618 25.876C39.1927 25.3241 39.022 24.7811 38.6865 24.3639" fill="#FCAF17"/>
</g>
</g>
</g>
</svg>
