<svg width="49" height="48" viewBox="0 0 49 48" fill="none" xmlns="http://www.w3.org/2000/svg">
<rect x="0.5" width="48" height="48" rx="24" fill="#F6F7FC"/>
<g clip-path="url(#clip0_15872_24719)">
<path d="M37.8346 10.668H11.168V37.3346H37.8346V10.668Z" fill="#0091D0"/>
<path d="M11.168 10.668L17.8327 17.3366L24.5013 10.668H11.168Z" fill="#0091D0"/>
<path d="M11.168 10.668V24.0013L17.8327 17.3366L11.168 10.668Z" fill="#009AD8"/>
<path d="M24.5013 24.0006L17.8366 17.332L11.168 24.0006H24.5013Z" fill="#0091D0"/>
<path d="M24.5007 24.0013V10.668L17.8359 17.3327L24.5007 24.0013Z" fill="#0082C9"/>
<path d="M24.5 10.668V24.0013L31.1647 17.3366L24.5 10.668Z" fill="#0071BB"/>
<path d="M37.8333 24.0006L31.1686 17.332L24.5 24.0006H37.8333Z" fill="#004C98"/>
<path d="M11.168 24L17.8327 30.6686L24.5013 24H11.168Z" fill="#0082C9"/>
<path d="M11.168 24V37.3333L17.8327 30.6686L11.168 24Z" fill="#0071BB"/>
<path d="M24.5013 37.3366L17.8366 30.668L11.168 37.3366H24.5013Z" fill="#0066B3"/>
<path d="M24.5007 37.3333V24L17.8359 30.6647L24.5007 37.3333Z" fill="#00529C"/>
<path d="M24.5 24L31.1647 30.6686L37.8333 24H24.5Z" fill="#1B3281"/>
<path d="M24.5 24V37.3333L31.1647 30.6686L24.5 24Z" fill="#004C98"/>
<path d="M37.8333 37.3366L31.1686 30.668L24.5 37.3366H37.8333Z" fill="#1B3281"/>
<path d="M37.8366 37.3333V24L31.1719 30.6647L37.8366 37.3333Z" fill="#1B3281"/>
<path d="M24.5 10.668L31.1647 17.3366L37.8333 10.668H24.5Z" fill="#0066B3"/>
<path d="M37.8366 24.0013V10.668L31.1719 17.3327L37.8366 24.0013Z" fill="#00529C"/>
<path d="M37.8376 27.3364L29.2992 19.207L16.3438 32.1937L21.0687 36.9186L29.2992 28.8165L37.8376 37.3081V27.3364Z" fill="white"/>
</g>
<defs>
<clipPath id="clip0_15872_24719">
<rect width="26.6667" height="26.6667" fill="white" transform="translate(11.168 10.668)"/>
</clipPath>
</defs>
</svg>
