<svg width="49" height="48" viewBox="0 0 49 48" fill="none" xmlns="http://www.w3.org/2000/svg">
<rect x="0.5" width="48" height="48" rx="24" fill="#F6F7FC"/>
<g clip-path="url(#clip0_15872_18956)">
<path d="M9.87237 23.9523C9.86068 23.9559 9.85046 23.9632 9.8432 23.9731C9.83594 23.983 9.83203 23.9949 9.83203 24.0072C9.83203 24.0194 9.83594 24.0313 9.8432 24.0412C9.85046 24.0511 9.86068 24.0584 9.87237 24.062L14.3973 27.0507L15.6931 20.9531L9.87237 23.9523Z" fill="#E72511"/>
<path d="M36.6889 20.9492H35.5394C35.4687 20.9536 35.3996 20.9713 35.3356 21.0015L29.588 23.9588C29.5358 23.9588 29.5306 24.032 29.588 24.0686L34.0345 26.9946C34.0954 27.0287 34.1634 27.0484 34.2331 27.0521H35.3774C35.4401 27.0521 35.4453 27.0521 35.3774 26.9946L30.8316 24.0059L36.6889 21.0015C36.7359 20.9753 36.7307 20.9492 36.6889 20.9492Z" fill="#F08300"/>
<path d="M34.2158 20.9492H26.2372L24.9414 27.0521H32.9096C32.9723 27.0521 32.9775 27.0521 32.9096 26.9946L28.3742 24.0059L34.2002 21.0015C34.2838 20.9753 34.2785 20.9492 34.2158 20.9492Z" fill="#E72511"/>
<path d="M39.1191 20.9492H37.9749C37.9041 20.9526 37.8348 20.9704 37.7711 21.0015L32.0236 23.9588C31.9713 23.9588 31.9713 24.032 32.0236 24.0686L36.4753 26.9946C36.5341 27.0292 36.6004 27.049 36.6686 27.0521H37.8181C37.8756 27.0521 37.886 27.0521 37.8181 26.9946L33.2776 24.0059L39.1087 21.0015C39.1819 20.9753 39.1766 20.9492 39.1191 20.9492Z" fill="#FABE00"/>
<path d="M33.8661 16.9554H15.0978C14.6512 16.9338 14.2111 17.0694 13.8541 17.3385C13.4971 17.6077 13.2457 17.9935 13.1436 18.4288C13.0973 18.6356 13.1121 18.8515 13.1863 19.0501C13.2605 19.2486 13.391 19.4213 13.5616 19.547L20.3071 23.9987L33.8922 17.0076C33.9288 16.9762 33.9236 16.9554 33.8661 16.9554Z" fill="#E72511"/>
<path d="M30.8896 30.9859L20.3141 24L11.6771 28.457C11.459 28.5714 11.267 28.7299 11.1132 28.9224C10.9594 29.1148 10.8472 29.3371 10.7836 29.5751C10.606 30.385 11.0606 31.0433 12.1108 31.0433H30.8791C30.9418 31.0433 30.9418 31.0172 30.8896 30.9859Z" fill="#E72511"/>
</g>
<defs>
<clipPath id="clip0_15872_18956">
<rect width="29.3333" height="14.0867" fill="white" transform="translate(9.83203 16.957)"/>
</clipPath>
</defs>
</svg>
