<svg width="49" height="48" viewBox="0 0 49 48" fill="none" xmlns="http://www.w3.org/2000/svg">
<rect x="0.5" width="48" height="48" rx="24" fill="#F6F7FC"/>
<g clip-path="url(#clip0_15872_24679)">
<path d="M38.9958 19.9942C39.2725 19.1587 39.2062 18.2476 38.8115 17.461C38.4167 16.6744 37.7259 16.0767 36.8907 15.7993L19.5074 9.96356C19.0936 9.82313 18.656 9.76656 18.2201 9.79712C17.7843 9.82768 17.3589 9.94479 16.9688 10.1416" fill="white"/>
<path d="M16.968 10.1484C16.1808 10.5424 15.5823 11.2328 15.304 12.0679L10.0023 28.0038C9.72772 28.8393 9.79503 29.7495 10.1895 30.5356C10.584 31.3216 11.2735 31.9195 12.1075 32.1987L29.4985 38.0344C29.9126 38.1732 30.3499 38.2289 30.7855 38.1983C31.2212 38.1678 31.6465 38.0516 32.0371 37.8564C32.4269 37.6627 32.7742 37.3931 33.0586 37.0636C33.343 36.734 33.5588 36.351 33.6934 35.937L39.0028 20.001" fill="white"/>
<path d="M25.4739 25.4561C24.5168 26.5285 23.3212 27.361 21.9833 27.8864L21.2093 28.1882V20.8046L21.9833 21.1064C23.3229 21.629 24.5211 22.4588 25.4816 23.5289C26.0894 22.5345 26.4727 21.4192 26.6047 20.2612C26.7366 19.1032 26.614 17.9303 26.2454 16.8246C25.8768 15.7189 25.2712 14.707 24.4708 13.8598C23.6705 13.0125 22.6947 12.3503 21.6118 11.9194L19.0732 11.0526C18.8043 10.9644 18.5208 10.93 18.2386 10.9515C17.9565 10.9731 17.6814 11.05 17.4291 11.178C17.1768 11.3059 16.9522 11.4824 16.7681 11.6973C16.5841 11.9122 16.4442 12.1612 16.3565 12.4302L11.0394 28.3817C10.8658 28.9308 10.9154 29.5263 11.1776 30.0391C11.4398 30.5518 11.8934 30.9407 12.4403 31.1215L24.5064 35.1462C25.7098 33.8612 26.4555 32.2149 26.6276 30.4628C26.7997 28.7107 26.3887 26.9507 25.4584 25.4561H25.4739ZM18.4927 20.3634V28.6448H17.293V20.3866L18.4927 20.3634Z" fill="#2293C8"/>
<path d="M24.7779 24.4896C24.0983 23.6959 23.2735 23.0392 22.3477 22.5547V26.4245C23.2774 25.9361 24.1029 25.271 24.7779 24.4664" fill="#E43D30"/>
<path d="M36.5091 16.8636L25.4336 13.1641C26.8248 14.6854 27.6588 16.6336 27.7994 18.6904C27.94 20.7471 27.3788 22.7907 26.2076 24.4872C27.3457 26.133 27.9107 28.1075 27.8156 30.1062C27.7205 32.1049 26.9705 34.0169 25.6813 35.5472L29.8452 36.9326C30.114 37.0219 30.3978 37.057 30.6802 37.036C30.9627 37.015 31.2381 36.9382 31.4907 36.8101C31.7433 36.682 31.968 36.5051 32.1519 36.2897C32.3357 36.0742 32.475 35.8245 32.5618 35.5549L37.9022 19.6112C38.0783 19.0631 38.0306 18.4676 37.7697 17.9545C37.5088 17.4413 37.0557 17.052 36.5091 16.8714V16.8636ZM33.5757 28.6279H32.0742L28.9784 24.4872L32.0742 20.3542H33.6222L30.5263 24.5027L33.5757 28.6279Z" fill="#215C9C"/>
</g>
<defs>
<clipPath id="clip0_15872_24679">
<rect width="29.3333" height="28.4123" fill="white" transform="translate(9.83203 9.79688)"/>
</clipPath>
</defs>
</svg>
