<svg width="49" height="48" viewBox="0 0 49 48" fill="none" xmlns="http://www.w3.org/2000/svg">
<rect x="0.5" width="48" height="48" rx="24" fill="#F6F7FC"/>
<g clip-path="url(#clip0_15872_32149)">
<path d="M29.0343 26.4625C28.966 26.0628 28.8497 25.6728 28.6879 25.3007C28.2179 24.196 27.4121 23.2655 26.3834 22.64C25.571 22.1636 24.6439 21.9154 23.7009 21.922C22.758 21.9286 21.8345 22.1897 21.0289 22.6775C20.2784 23.1252 19.6701 23.7747 19.2741 24.5512C19.1393 24.8167 19.026 25.0923 18.9352 25.3757C18.6901 26.1115 18.5965 26.8889 18.6599 27.6615C18.7233 28.4342 18.9424 29.1862 19.3043 29.8727C19.5518 30.2928 19.9297 30.6216 20.3812 30.8095C20.6065 30.9029 20.8508 30.9421 21.0942 30.9239C21.3376 30.9057 21.5732 30.8305 21.782 30.7046C22.0116 30.5233 22.1831 30.2792 22.2754 30.0023C22.3677 29.7253 22.3768 29.4276 22.3016 29.1457C22.1267 28.4291 22.1449 27.6794 22.3543 26.9721C22.4375 26.7409 22.5712 26.531 22.7459 26.3575C22.8545 26.2535 22.979 26.1674 23.115 26.1027C23.3987 25.9608 23.7193 25.9084 24.0337 25.9528C24.3066 26.0114 24.5615 26.1338 24.7776 26.3097C24.9936 26.4856 25.1646 26.7101 25.2764 26.9646C25.4855 27.4635 25.5955 27.998 25.6002 28.5386C25.6041 30.9795 25.2411 33.4072 24.5233 35.7412C24.4555 35.9811 24.3877 36.2134 24.3275 36.4532C24.2672 36.6931 24.1768 36.8655 24.3275 37.0454C24.38 37.1197 24.4533 37.177 24.5383 37.2102C24.8998 37.3526 25.186 37.1353 25.427 36.8954C26.795 35.4372 27.8031 33.682 28.3716 31.7689C28.6082 31.0679 28.7969 30.3517 28.9364 29.6253C29.1516 28.5772 29.1898 27.5006 29.0494 26.44" fill="#008375"/>
<path d="M39.1585 15.3564C39.1557 15.274 39.1361 15.193 39.1008 15.1184C39.0656 15.0437 39.0154 14.977 38.9534 14.9223C38.8914 14.8676 38.8188 14.826 38.7401 14.8002C38.6615 14.7743 38.5783 14.7647 38.4957 14.7718C38.1488 14.8196 37.8126 14.9261 37.5016 15.0866C31.1572 17.3463 24.3445 17.9854 17.6875 16.9454C16.5654 16.7805 15.4282 16.5631 14.2986 16.3832C13.5906 16.2708 12.8903 16.1134 12.1823 16.061C11.5423 15.9387 10.8794 16.0648 10.3297 16.4132C10.0473 16.7223 9.87219 17.1135 9.83016 17.5291C9.78812 17.9447 9.88141 18.3628 10.0962 18.7217C10.5759 19.5393 11.2713 20.2106 12.107 20.6629C12.8827 21.2099 13.8006 21.5222 14.7504 21.5623C17.2608 21.3974 19.7711 21.1475 22.2814 20.8128C26.5365 20.2656 30.9873 19.7485 34.9863 18.1071C36.3093 17.5835 37.5555 16.8852 38.6915 16.031C38.8949 15.8811 39.1886 15.6263 39.1886 15.334" fill="#008375"/>
<path d="M21.3086 13.2347C21.3086 13.8807 21.5665 14.5003 22.0255 14.9571C22.4845 15.4139 23.107 15.6706 23.7562 15.6706C24.4053 15.6706 25.0279 15.4139 25.4869 14.9571C25.9459 14.5003 26.2038 13.8807 26.2038 13.2347C26.2034 13.033 26.1597 12.8337 26.0757 12.6501C25.8649 12.2079 25.6239 11.9906 25.654 11.4584C25.654 10.7464 24.7578 10.7089 24.2608 10.7089C23.7082 10.691 23.159 10.8014 22.6566 11.0312C22.2665 11.2288 21.9364 11.5263 21.7002 11.8931C21.4526 12.2675 21.3168 12.7041 21.3086 13.1523V13.2122" fill="#D50037"/>
</g>
<defs>
<clipPath id="clip0_15872_32149">
<rect width="29.3333" height="26.5397" fill="white" transform="translate(9.83203 10.7305)"/>
</clipPath>
</defs>
</svg>
