<svg width="49" height="48" viewBox="0 0 49 48" fill="none" xmlns="http://www.w3.org/2000/svg">
<rect x="0.5" width="48" height="48" rx="24" fill="#F6F7FC"/>
<g clip-path="url(#clip0_15872_32212)">
<path d="M37.3917 21.1111H38.1475C38.1713 21.1111 38.1942 21.1016 38.2111 21.0848C38.228 21.0679 38.2375 21.045 38.2375 21.0211V19.5961C38.2375 19.5844 38.2352 19.5728 38.2306 19.562C38.2261 19.5511 38.2194 19.5413 38.211 19.5331C38.2026 19.5249 38.1927 19.5184 38.1818 19.5141C38.1709 19.5097 38.1592 19.5076 38.1475 19.5078H37.086C35.858 19.5078 35.2075 19.9002 34.8356 20.7341L32.5274 26.3881C32.481 26.5439 32.382 26.6788 32.2473 26.7699C32.1126 26.8609 31.9505 26.9025 31.7886 26.8874V19.5961C31.7886 19.5844 31.7863 19.5728 31.7817 19.562C31.7772 19.5511 31.7705 19.5413 31.7621 19.5331C31.7538 19.5249 31.7438 19.5184 31.7329 19.5141C31.722 19.5097 31.7103 19.5076 31.6986 19.5078H30.0002C29.9884 19.5076 29.9768 19.5097 29.9659 19.5141C29.9549 19.5184 29.945 19.5249 29.9366 19.5331C29.9282 19.5413 29.9216 19.5511 29.917 19.562C29.9125 19.5728 29.9102 19.5844 29.9102 19.5961V28.3345C29.9106 28.3761 29.9274 28.4158 29.957 28.4451C29.9866 28.4743 30.0265 28.4907 30.0681 28.4907H31.972C33.1983 28.4907 33.7605 28.0984 34.1307 27.2645L36.41 21.6801C36.5934 21.2844 36.8567 21.1111 37.3917 21.1111Z" fill="#D71920"/>
<path d="M16.658 24.0001C17.3373 23.7165 17.9012 23.0796 17.9012 22.0266C17.9012 20.4589 16.5561 19.5078 14.9341 19.5078H9.92037C9.89694 19.5078 9.87448 19.5171 9.85792 19.5337C9.84135 19.5502 9.83205 19.5727 9.83205 19.5961V21.0211C9.83182 21.0328 9.83394 21.0445 9.83828 21.0554C9.84261 21.0663 9.84908 21.0763 9.85731 21.0847C9.86553 21.093 9.87534 21.0997 9.88617 21.1042C9.897 21.1088 9.90862 21.1111 9.92037 21.1111H14.5876C15.34 21.1111 15.8495 21.5714 15.8495 22.1302C15.8495 22.6889 15.34 23.1577 14.5876 23.1577H11.8141V22.103C11.8143 22.0911 11.8122 22.0793 11.8077 22.0683C11.8033 22.0572 11.7967 22.0472 11.7882 22.0388C11.7798 22.0304 11.7698 22.0238 11.7588 22.0194C11.7478 22.0149 11.736 22.0127 11.7241 22.013H9.92037C9.90862 22.013 9.897 22.0153 9.88617 22.0199C9.87534 22.0244 9.86553 22.0311 9.85731 22.0394C9.84908 22.0478 9.84261 22.0578 9.83828 22.0687C9.83394 22.0796 9.83182 22.0913 9.83205 22.103V28.399C9.83205 28.4224 9.84135 28.4449 9.85792 28.4615C9.87448 28.478 9.89694 28.4873 9.92037 28.4873H14.8628C16.7106 28.4873 18.0337 27.6262 18.0337 25.8684C18.0375 25.45 17.9054 25.0417 17.6573 24.7049C17.4093 24.368 17.0586 24.1207 16.658 24.0001ZM14.6844 26.9265H11.8141V24.8205H14.6844C15.4555 24.8205 15.9786 25.2926 15.9786 25.8735C15.9786 26.4543 15.4555 26.9265 14.6844 26.9265Z" fill="#D71920"/>
<path d="M39.1464 28.3867L36.2371 24.6672C36.2359 24.665 36.2342 24.6633 36.2321 24.662C36.23 24.6608 36.2276 24.6602 36.2252 24.6602C36.2227 24.6602 36.2204 24.6608 36.2183 24.662C36.2162 24.6633 36.2145 24.665 36.2133 24.6672L35.4303 26.583C35.4273 26.5885 35.4258 26.5946 35.4258 26.6008C35.4258 26.607 35.4273 26.6132 35.4303 26.6186L36.7024 28.3171C36.7392 28.3726 36.7899 28.4176 36.8496 28.4474C36.9092 28.4772 36.9756 28.4908 37.0421 28.4869H39.0904C39.1028 28.4889 39.1154 28.487 39.1267 28.4816C39.138 28.4761 39.1473 28.4673 39.1534 28.4564C39.1595 28.4454 39.1621 28.4329 39.1609 28.4204C39.1596 28.408 39.1546 28.3962 39.1464 28.3867Z" fill="#D71920"/>
<path d="M21.2181 22.0156H19.5197C19.4958 22.0156 19.4729 22.0251 19.4561 22.042C19.4392 22.0589 19.4297 22.0818 19.4297 22.1056V28.4017C19.4297 28.4134 19.432 28.425 19.4366 28.4359C19.4411 28.4467 19.4478 28.4565 19.4562 28.4647C19.4645 28.4729 19.4745 28.4794 19.4854 28.4838C19.4963 28.4881 19.508 28.4902 19.5197 28.49H21.2181C21.2417 28.49 21.2643 28.4807 21.2812 28.4642C21.298 28.4477 21.3077 28.4252 21.3081 28.4017V22.1022C21.3073 22.079 21.2974 22.0569 21.2806 22.0408C21.2638 22.0246 21.2414 22.0156 21.2181 22.0156Z" fill="#D71920"/>
<path d="M28.2054 19.5078H26.507C26.4954 19.5078 26.4839 19.5101 26.4732 19.5146C26.4625 19.519 26.4527 19.5255 26.4445 19.5337C26.4363 19.5419 26.4298 19.5516 26.4254 19.5624C26.4209 19.5731 26.4187 19.5845 26.4187 19.5961V26.8874C26.2568 26.9025 26.0947 26.8609 25.96 26.7699C25.8253 26.6788 25.7263 26.5439 25.6799 26.3881L23.3683 20.7341C22.9981 19.9002 22.3493 19.5078 21.1196 19.5078H19.5197C19.508 19.5076 19.4963 19.5097 19.4854 19.5141C19.4745 19.5184 19.4645 19.5249 19.4562 19.5331C19.4478 19.5413 19.4411 19.5511 19.4366 19.562C19.432 19.5728 19.4297 19.5844 19.4297 19.5961V21.0211C19.4297 21.045 19.4392 21.0679 19.4561 21.0848C19.4729 21.1016 19.4958 21.1111 19.5197 21.1111H20.8122C21.3489 21.1111 21.6105 21.281 21.7939 21.6801L24.0732 27.2645C24.4451 28.0984 25.0056 28.4907 26.2335 28.4907H28.1358C28.1774 28.4907 28.2173 28.4743 28.2469 28.4451C28.2764 28.4158 28.2933 28.3761 28.2937 28.3345V19.5961C28.2937 19.5727 28.2844 19.5503 28.2678 19.5337C28.2513 19.5171 28.2288 19.5078 28.2054 19.5078Z" fill="#D71920"/>
</g>
<defs>
<clipPath id="clip0_15872_32212">
<rect width="29.3333" height="8.98292" fill="white" transform="translate(9.83203 19.5078)"/>
</clipPath>
</defs>
</svg>
