<svg width="49" height="48" viewBox="0 0 49 48" fill="none" xmlns="http://www.w3.org/2000/svg">
<rect x="0.5" width="48" height="48" rx="24" fill="#F6F7FC"/>
<g clip-path="url(#clip0_15872_41557)">
<path fill-rule="evenodd" clip-rule="evenodd" d="M20.767 37.6683C20.1143 38.1106 19.3514 38.3627 18.5636 38.3962C17.6461 38.3795 16.7687 38.0169 16.1072 37.3809C15.4457 36.7449 15.0489 35.8825 14.9961 34.9664L18.6947 32.7695L24.4329 35.3402L20.767 37.6683Z" fill="#72A3B6"/>
<path fill-rule="evenodd" clip-rule="evenodd" d="M22.9503 28.2118L20.2091 27.0051C18.9828 26.4674 17.8286 26.0018 17.8286 24.6574C17.8104 24.3955 17.8491 24.1327 17.9419 23.8871C18.0347 23.6415 18.1795 23.4189 18.3663 23.2344L24.1569 25.7788L22.7339 26.6182C22.3338 26.8543 22.0781 27.0707 22.0781 27.379C22.0781 27.6872 22.4519 27.9888 22.9699 28.2118H22.9503Z" fill="#96CE8E"/>
<path fill-rule="evenodd" clip-rule="evenodd" d="M25.641 15.5633L22.8277 17.2749C22.5785 17.4257 22.2375 17.6618 22.2375 18.0421C22.2375 18.4225 22.8933 18.7897 23.4638 19.0652L19.9554 17.5175C18.9258 17.0585 17.8831 16.5469 17.8831 15.2944C17.876 14.8271 18.0135 14.3691 18.2765 13.9828L25.8837 9.33984C26.4161 9.63258 26.8616 10.061 27.1749 10.5816C27.4882 11.1022 27.6581 11.6965 27.6674 12.304C27.672 12.9858 27.4843 13.655 27.1259 14.235C26.7675 14.815 26.2528 15.2821 25.641 15.5829V15.5633Z" fill="#72A3B6"/>
<path fill-rule="evenodd" clip-rule="evenodd" d="M31.6135 21.0451L30.9184 21.4452L25.1016 18.881L31.8562 14.8086C32.3902 15.103 32.8377 15.5322 33.1541 16.0534C33.4705 16.5747 33.6448 17.1697 33.6596 17.7793C33.6704 18.4648 33.4831 19.1389 33.1201 19.7205C32.7572 20.3022 32.234 20.7667 31.6135 21.0582V21.0451Z" fill="#96CE8E"/>
<path fill-rule="evenodd" clip-rule="evenodd" d="M26.7034 25.9883L30.1463 27.4966C31.4579 28.0737 31.8317 28.7557 31.8317 29.6082C31.8203 29.8606 31.7561 30.1077 31.6431 30.3337C31.5302 30.5596 31.371 30.7593 31.1759 30.9198L25.3984 28.3491L26.369 27.8114C27.1953 27.3458 27.4773 27.0769 27.4773 26.7752C27.4773 26.4736 27.274 26.2571 26.71 25.9948L26.7034 25.9883Z" fill="#72A3B6"/>
<path fill-rule="evenodd" clip-rule="evenodd" d="M32.8456 38.665C31.3155 37.5619 29.6601 36.644 27.914 35.9304L19.1658 32.0416C16.9624 31.0579 15.5 29.7594 15.5 27.556C15.5 25.3526 16.5361 24.382 17.8805 23.5295L18.3658 23.2344C18.179 23.4189 18.0342 23.6415 17.9414 23.8871C17.8486 24.1327 17.8099 24.3955 17.828 24.6574C17.828 26.0018 18.9822 26.4674 20.2085 27.0051L30.3864 31.4907C32.1701 32.258 33.7833 33.5696 33.7833 35.7861C33.8053 36.8242 33.4747 37.8391 32.8456 38.665Z" fill="#4C9847"/>
<path fill-rule="evenodd" clip-rule="evenodd" d="M31.798 30.5143L31.1422 30.9143C31.3372 30.7538 31.4964 30.5541 31.6094 30.3282C31.7224 30.1022 31.7866 29.8551 31.798 29.6027C31.798 28.7502 31.3979 28.0682 30.1126 27.4911L19.2265 22.7104C17.0231 21.7202 15.6525 20.4676 15.6525 18.2773C15.6453 17.3902 15.8834 16.5183 16.3405 15.758C16.7976 14.9977 17.456 14.3785 18.2428 13.9688C17.9798 14.355 17.8423 14.813 17.8494 15.2803C17.8494 16.5329 18.8921 17.0444 19.9217 17.5034L30.4995 22.1726C32.4341 23.0317 33.9949 24.3302 33.9949 26.6648C34.0172 27.4484 33.8204 28.2227 33.4264 28.9005C33.0325 29.5783 32.4571 30.1327 31.7652 30.5011L31.798 30.5143Z" fill="#296085"/>
</g>
<defs>
<clipPath id="clip0_15872_41557">
<rect width="19.044" height="29.3333" fill="white" transform="translate(14.9766 9.33203)"/>
</clipPath>
</defs>
</svg>
