<svg width="49" height="48" viewBox="0 0 49 48" fill="none" xmlns="http://www.w3.org/2000/svg">
<rect x="0.5" width="48" height="48" rx="24" fill="#F6F7FC"/>
<g clip-path="url(#clip0_15872_18882)">
<path d="M38.9529 23.9952C38.9542 26.8662 38.1039 29.6732 36.5097 32.061C34.9154 34.4487 32.6488 36.31 29.9965 37.4093C27.3442 38.5086 24.4255 38.7966 21.6095 38.2368C18.7935 37.677 16.2069 36.2946 14.1767 34.2644C12.1465 32.2343 10.7641 29.6476 10.2043 26.8316C9.64454 24.0157 9.93252 21.0969 11.0318 18.4447C12.1312 15.7924 13.9924 13.5257 16.3802 11.9315C18.7679 10.3372 21.5749 9.48697 24.446 9.48828C28.2929 9.49005 31.9818 11.019 34.702 13.7392C37.4221 16.4594 38.9511 20.1482 38.9529 23.9952Z" fill="white"/>
<path d="M24.4462 37.8181C27.1797 37.8181 29.8519 37.0075 32.1248 35.4888C34.3977 33.9701 36.1692 31.8115 37.2152 29.2861C38.2613 26.7606 38.535 23.9816 38.0017 21.3006C37.4685 18.6195 36.1521 16.1568 34.2192 14.2239C32.2863 12.291 29.8236 10.9746 27.1425 10.4414C24.4615 9.90806 21.6825 10.1818 19.157 11.2279C16.6315 12.274 14.473 14.0454 12.9543 16.3183C11.4356 18.5912 10.625 21.2634 10.625 23.9969C10.625 27.6625 12.0812 31.178 14.6731 33.77C17.2651 36.3619 20.7806 37.8181 24.4462 37.8181Z" fill="#0083CA"/>
<mask id="mask0_15872_18882" style="mask-type:alpha" maskUnits="userSpaceOnUse" x="10" y="10" width="29" height="28">
<path d="M24.4462 37.8181C27.1797 37.8181 29.8519 37.0075 32.1248 35.4888C34.3977 33.9701 36.1692 31.8115 37.2152 29.2861C38.2613 26.7606 38.535 23.9816 38.0017 21.3006C37.4685 18.6195 36.1521 16.1568 34.2192 14.2239C32.2863 12.291 29.8236 10.9746 27.1425 10.4414C24.4615 9.90806 21.6825 10.1818 19.157 11.2279C16.6315 12.274 14.473 14.0454 12.9543 16.3183C11.4356 18.5912 10.625 21.2634 10.625 23.9969C10.625 27.6625 12.0812 31.178 14.6731 33.77C17.2651 36.3619 20.7806 37.8181 24.4462 37.8181Z" fill="#0083CA"/>
</mask>
<g mask="url(#mask0_15872_18882)">
<path d="M24.4921 30.6713C30.5638 30.6713 35.77 32.3623 38.0003 34.759C38.7716 32.9957 39.1684 31.0913 39.1654 29.1667C39.1654 25.2768 37.6202 21.5463 34.8696 18.7958C32.1191 16.0452 28.3886 14.5 24.4987 14.5C20.6089 14.5 16.8784 16.0452 14.1278 18.7958C11.3773 21.5463 9.83205 25.2768 9.83205 29.1667C9.82928 31.0906 10.2237 32.9945 10.9905 34.759C13.2141 32.3623 18.4137 30.6713 24.4921 30.6713Z" fill="#0083CA"/>
<path d="M24.4921 30.6866C30.5505 30.6866 35.7434 32.3643 37.967 34.7477C38.733 32.997 39.1275 31.1063 39.1254 29.1953C39.1254 21.3327 32.5677 14.9414 24.4787 14.9414C16.3898 14.9414 9.83204 21.3327 9.83204 29.1953C9.8294 31.1064 10.2239 32.9971 10.9905 34.7477C13.2407 32.3643 18.4137 30.6866 24.4921 30.6866Z" fill="#0085CB"/>
<path d="M24.4919 30.6973C30.5303 30.6973 35.7099 32.3683 37.9269 34.7251C38.692 32.9904 39.0865 31.1152 39.0853 29.2193C39.0853 21.4166 32.5409 15.0586 24.4919 15.0586C16.4429 15.0586 9.89845 21.4233 9.89845 29.2193C9.89565 31.1153 10.2903 32.9909 11.0569 34.7251C13.2672 32.3683 18.4468 30.6973 24.4919 30.6973Z" fill="#0086CC"/>
<path d="M24.4855 30.7165C30.5106 30.7165 35.6836 32.3675 37.8939 34.711C38.6554 33.001 39.05 31.1503 39.0523 29.2784C39.0523 21.5423 32.5279 15.2109 24.4922 15.2109C16.4565 15.2109 9.94535 21.5423 9.94535 29.2784C9.94103 31.1589 10.3335 33.0192 11.0971 34.7376C13.2941 32.3675 18.4604 30.7165 24.4855 30.7165Z" fill="#0088CC"/>
<path d="M24.4862 30.7331C30.478 30.7331 35.651 32.3708 37.8547 34.6943C38.6168 32.9918 39.0094 31.1471 39.0064 29.2817C39.0064 21.6055 32.5019 15.3008 24.4862 15.3008C16.4705 15.3008 9.97267 21.5989 9.97267 29.2817C9.97001 31.1463 10.3602 32.9906 11.1178 34.6943C13.3214 32.3708 18.4744 30.7331 24.4862 30.7331Z" fill="#0089CD"/>
<path d="M24.4858 30.7449C30.4776 30.7449 35.6172 32.3693 37.8009 34.6729C38.5577 32.9853 38.9479 31.1564 38.946 29.3068C38.946 21.6906 32.4549 15.4258 24.4658 15.4258C16.4767 15.4258 9.99219 21.6972 9.99219 29.3068C9.9906 31.1556 10.3785 32.984 11.1306 34.6729C13.3476 32.3693 18.4939 30.7449 24.4858 30.7449Z" fill="#008BCE"/>
<path d="M24.4867 30.7634C30.4786 30.7634 35.5916 32.3678 37.8019 34.6581C38.5578 32.9842 38.9481 31.1685 38.947 29.332C38.947 21.7823 32.4759 15.5508 24.5067 15.5508C16.5376 15.5508 10.0664 21.7823 10.0664 29.332C10.0656 31.1678 10.4536 32.983 11.2049 34.6581C13.3752 32.3678 18.5082 30.7634 24.4867 30.7634Z" fill="#008DCF"/>
<path d="M24.4785 30.7779C30.4703 30.7779 35.5567 32.3758 37.7471 34.6393C38.4976 32.9805 38.8858 31.1806 38.8855 29.3599C38.8855 21.8767 32.4343 15.6719 24.4785 15.6719C16.5227 15.6719 10.0781 21.8767 10.0781 29.3599C10.0773 31.1807 10.4654 32.9807 11.2166 34.6393C13.4003 32.3758 18.5199 30.7779 24.4785 30.7779Z" fill="#008ED0"/>
<path d="M24.4776 30.7898C30.4228 30.7898 35.5292 32.3743 37.7063 34.6179C38.4604 32.9767 38.8489 31.1912 38.8447 29.385C38.8447 21.9618 32.4068 15.7969 24.4776 15.7969C16.5484 15.7969 10.1172 21.9685 10.1172 29.385C10.1135 31.1904 10.4995 32.9754 11.249 34.6179C13.426 32.3743 18.5324 30.7898 24.4776 30.7898Z" fill="#0090D0"/>
<path d="M24.4795 30.811C30.4047 30.811 35.4978 32.3755 37.6748 34.6058C38.4229 32.977 38.809 31.2053 38.8066 29.4129C38.8066 22.0896 32.3887 15.918 24.4795 15.918C16.5703 15.918 10.1523 22.0563 10.1523 29.4129C10.1525 31.2051 10.5385 32.9762 11.2841 34.6058C13.4612 32.3755 18.5476 30.811 24.4795 30.811Z" fill="#0092D1"/>
<path d="M24.4774 30.8256C30.3894 30.8256 35.4625 32.3768 37.6395 34.5871C38.3836 32.9734 38.7697 31.2178 38.7713 29.4408C38.7713 22.1174 32.3667 16.0391 24.4774 16.0391C16.5882 16.0391 10.1836 22.1507 10.1836 29.4408C10.1837 31.218 10.5699 32.9739 11.3154 34.5871C13.4857 32.3768 18.5588 30.8256 24.4774 30.8256Z" fill="#0093D2"/>
<path d="M24.4738 30.839C30.3724 30.839 35.4389 32.3835 37.6026 34.5672C38.3472 32.9702 38.7334 31.2296 38.7343 29.4675C38.7343 22.2374 32.3431 16.1523 24.4738 16.1523C16.6045 16.1523 10.2266 22.2307 10.2266 29.4675C10.2245 31.2292 10.6086 32.9699 11.3517 34.5672C13.5154 32.3835 18.5752 30.839 24.4738 30.839Z" fill="#0095D3"/>
<path d="M24.4718 30.8586C30.3504 30.8586 35.4035 32.3832 37.5672 34.5536C38.309 32.97 38.6931 31.2425 38.6924 29.4938C38.6924 22.3303 32.3211 16.2852 24.4718 16.2852C16.6225 16.2852 10.2578 22.3303 10.2578 29.4938C10.2558 31.2427 10.64 32.9704 11.383 34.5536C13.54 32.3832 18.5865 30.8586 24.4718 30.8586Z" fill="#0097D4"/>
<path d="M24.4736 30.8704C30.339 30.8704 35.3788 32.3817 37.5292 34.5321C38.2699 32.9671 38.6542 31.2571 38.6543 29.5256C38.6543 22.422 32.303 16.4102 24.4736 16.4102C16.6443 16.4102 10.293 22.402 10.293 29.5256C10.2924 31.2572 10.6767 32.9673 11.4181 34.5321C13.5685 32.3817 18.6017 30.8704 24.4736 30.8704Z" fill="#0098D5"/>
<path d="M24.4661 30.885C30.3181 30.885 35.3446 32.383 37.495 34.5134C38.2303 32.9632 38.6123 31.2692 38.6135 29.5535C38.6135 22.5098 32.2754 16.5312 24.4661 16.5312C16.6567 16.5312 10.332 22.5231 10.332 29.5535C10.3316 31.2694 10.7137 32.9638 11.4505 34.5134C13.5943 32.383 18.6141 30.885 24.4661 30.885Z" fill="#009AD5"/>
<path d="M24.464 30.8968C30.2961 30.8968 35.3093 32.3881 37.453 34.4986C38.1874 32.9623 38.5695 31.2814 38.5715 29.5786C38.5715 22.6015 32.2534 16.6562 24.464 16.6562C16.6747 16.6562 10.3633 22.6015 10.3633 29.5786C10.3637 31.2816 10.7458 32.9628 11.4818 34.4986C13.6188 32.3881 18.6253 30.8968 24.464 30.8968Z" fill="#009CD6"/>
<path d="M24.4666 30.9181C30.2854 30.9181 35.2852 32.3894 37.4223 34.4799C38.1515 32.9586 38.5313 31.2935 38.5341 29.6065C38.5341 22.6959 32.2294 16.7773 24.4666 16.7773C16.7039 16.7773 10.4258 22.6959 10.4258 29.6065C10.427 31.2945 10.8093 32.9603 11.5443 34.4799C13.648 32.3894 18.6412 30.9181 24.4666 30.9181Z" fill="#009ED7"/>
<path d="M24.4666 30.9326C30.2654 30.9326 35.2519 32.3906 37.3824 34.4612C38.1143 32.9574 38.4945 31.3068 38.4942 29.6344C38.4942 22.7837 32.2094 16.8984 24.4666 16.8984C16.7239 16.8984 10.4258 22.7837 10.4258 29.6344C10.4239 31.307 10.8042 32.9579 11.5376 34.4612C13.6747 32.3906 18.6546 30.9326 24.4666 30.9326Z" fill="#00A0D8"/>
<path d="M24.4598 30.946C30.2452 30.946 35.2251 32.3907 37.3489 34.4479C38.0755 32.9568 38.4534 31.3199 38.4541 29.6611C38.4541 22.8771 32.1893 17.0117 24.4731 17.0117C16.757 17.0117 10.4922 22.8637 10.4922 29.6611C10.4922 31.32 10.8701 32.957 11.5973 34.4479C13.7011 32.3907 18.6677 30.946 24.4598 30.946Z" fill="#00A1D9"/>
<path d="M24.4568 30.9657C30.2289 30.9657 35.1888 32.3971 37.3059 34.4276C38.0323 32.953 38.4104 31.3313 38.4111 29.6874C38.4111 22.9699 32.1596 17.1445 24.4302 17.1445C16.7007 17.1445 10.4492 22.9699 10.4492 29.6874C10.4523 31.331 10.8303 32.9522 11.5544 34.4276C13.7514 32.3971 18.6846 30.9657 24.4568 30.9657Z" fill="#00A3DA"/>
<path d="M24.4573 30.9794C30.2095 30.9794 35.1561 32.3974 37.2732 34.408C37.9921 32.9592 38.3701 31.3651 38.3783 29.7477C38.3783 23.0901 32.1402 17.3047 24.4573 17.3047C16.7745 17.3047 10.543 23.0901 10.543 29.7477C10.5489 31.3646 10.9246 32.9587 11.6415 34.408C13.7519 32.3974 18.6985 30.9794 24.4573 30.9794Z" fill="#00A5DB"/>
<path d="M24.4592 30.9909C30.1914 30.9909 35.1113 32.3957 37.2351 34.3929C37.9613 32.9467 38.3397 31.3509 38.3403 29.7326C38.3403 23.1416 32.1221 17.3828 24.4592 17.3828C16.7963 17.3828 10.5781 23.1416 10.5781 29.7326C10.578 31.3502 10.9541 32.9457 11.6766 34.3929C13.7538 32.3957 18.7137 30.9909 24.4592 30.9909Z" fill="#00A7DC"/>
<path d="M24.4517 31.0106C30.1772 31.0106 35.1038 32.3953 37.2009 34.3726C37.9206 32.9457 38.2968 31.3704 38.2994 29.7722C38.2994 23.2412 32.0946 17.5156 24.4517 17.5156C16.8087 17.5156 10.6172 23.2412 10.6172 29.7722C10.6175 31.3699 10.9914 32.9453 11.709 34.3726C13.8062 32.3953 18.7261 31.0106 24.4517 31.0106Z" fill="#00A9DD"/>
<path d="M24.4535 31.0251C30.1591 31.0251 35.0724 32.4033 37.1629 34.3539C37.8825 32.9437 38.2589 31.3834 38.2614 29.8001C38.2614 23.329 32.0765 17.6367 24.4535 17.6367C16.8306 17.6367 10.6523 23.329 10.6523 29.8001C10.655 31.3826 11.029 32.9423 11.7442 34.3539C13.8347 32.4033 18.7413 31.0251 24.4535 31.0251Z" fill="#00ABDE"/>
<path d="M24.4508 31.0377C30.143 31.0377 35.0363 32.4025 37.1002 34.3665C37.8138 32.9685 38.1878 31.4221 38.192 29.8526C38.192 23.448 32.0271 17.7891 24.4241 17.7891C16.8212 17.7891 10.6562 23.448 10.6562 29.8526C10.6667 31.4136 11.0429 32.9505 11.7547 34.3398C13.8652 32.4025 18.7519 31.0377 24.4508 31.0377Z" fill="#00ADDE"/>
<path d="M24.4451 31.0492C30.124 31.0492 35.004 32.3807 37.0945 34.3181C37.8108 32.9379 38.1853 31.4059 38.1864 29.8508C38.1864 23.5128 32.0348 17.8672 24.4518 17.8672C16.8688 17.8672 10.7305 23.4995 10.7305 29.8508C10.7319 31.405 11.1039 32.9365 11.8157 34.3181C13.8928 32.4007 18.7662 31.0492 24.4451 31.0492Z" fill="#00AFDF"/>
<path d="M24.4458 31.0688C30.1048 31.0688 34.9781 32.4004 37.0553 34.2978C37.7662 32.9325 38.1384 31.4164 38.1405 29.8771C38.1405 23.599 32.0088 18 24.4458 18C16.8828 18 10.7578 23.599 10.7578 29.8771C10.7591 31.4165 11.1314 32.9328 11.843 34.2978C13.9202 32.4004 18.7802 31.0688 24.4458 31.0688Z" fill="#00B1E0"/>
<path d="M24.4438 31.0846C30.0894 31.0846 34.9428 32.4161 37.0133 34.2869C37.7239 32.9359 38.0963 31.4327 38.0985 29.9062C38.0985 23.6947 31.9868 18.1289 24.4438 18.1289C16.9007 18.1289 10.7891 23.6947 10.7891 29.9062C10.7905 31.4328 11.1629 32.9361 11.8743 34.2869C13.9448 32.4094 18.7915 31.0846 24.4438 31.0846Z" fill="#00B3E1"/>
<path d="M24.4468 31.0991C30.0725 31.0991 34.9192 32.4307 36.9831 34.2682C37.6885 32.9322 38.0586 31.4448 38.0616 29.9341C38.0616 23.7825 31.9632 18.25 24.4468 18.25C16.9304 18.25 10.832 23.7891 10.832 29.9341C10.835 31.4448 11.2051 32.9322 11.9106 34.2682C13.9744 32.4107 18.8078 31.0991 24.4468 31.0991Z" fill="#0DB5E2"/>
<path d="M24.4381 31.1176C30.0504 31.1176 34.8838 32.4092 36.941 34.2467C37.646 32.9273 38.0163 31.4551 38.0196 29.9592C38.0196 23.8742 31.9412 18.375 24.4381 18.375C16.935 18.375 10.8633 23.8742 10.8633 29.9592C10.8666 31.4551 11.2369 32.9273 11.9418 34.2467C13.999 32.4092 18.8191 31.1176 24.4381 31.1176Z" fill="#19B7E3"/>
<path d="M24.44 31.1322C30.039 31.1322 34.8524 32.4105 36.9096 34.2346C37.6128 32.9313 37.9833 31.4746 37.9882 29.9938C37.9882 24.0019 31.9231 18.4961 24.44 18.4961C16.9568 18.4961 10.8984 23.9686 10.8984 29.9938C10.9025 31.4747 11.273 32.9316 11.977 34.2346C14.0275 32.4105 18.8343 31.1322 24.44 31.1322Z" fill="#21B9E4"/>
<path d="M24.4391 31.144C30.0181 31.144 34.8249 32.4156 36.8755 34.2132C37.573 32.9248 37.9412 31.484 37.9473 30.0189C37.9473 24.0271 31.8956 18.6211 24.4391 18.6211C16.9826 18.6211 10.9375 24.0537 10.9375 30.0189C10.9405 31.4835 11.3065 32.9246 12.0027 34.2132C14.0533 32.4156 18.8467 31.144 24.4391 31.144Z" fill="#28BBE5"/>
<path d="M24.4386 31.1786C30.011 31.1786 34.8112 32.4435 36.8551 34.2277C37.5533 32.9492 37.9217 31.5168 37.9269 30.0601C37.9269 24.1415 31.8885 18.7422 24.4386 18.7422C16.9888 18.7422 10.957 24.1548 10.957 30.0601C10.9591 31.5164 11.3253 32.949 12.0222 34.2277C14.0661 32.4435 18.8596 31.1786 24.4386 31.1786Z" fill="#37BDE6"/>
<path d="M24.437 31.2163C30.0028 31.2163 34.7963 32.4679 36.8335 34.2455C37.5327 32.9746 37.9013 31.5484 37.9053 30.0978C37.9053 24.2192 31.8736 18.8398 24.437 18.8398C17.0005 18.8398 10.9688 24.2192 10.9688 30.0978C10.9758 31.5471 11.3418 32.9721 12.034 34.2455C14.0778 32.4679 18.8646 31.2163 24.437 31.2163Z" fill="#43BFE6"/>
<path d="M24.4405 31.277C29.9996 31.277 34.7797 32.522 36.8236 34.2863C37.5178 33.0257 37.8841 31.6109 37.8888 30.1719C37.8888 24.3265 31.897 18.9805 24.4405 18.9805C16.984 18.9805 10.9922 24.3065 10.9922 30.1719C10.9961 31.611 11.3624 33.026 12.0574 34.2863C14.0946 32.4954 18.8748 31.277 24.4405 31.277Z" fill="#4DC0E7"/>
<path d="M24.4401 31.2753C29.9925 31.2753 34.766 32.5136 36.8032 34.2645C37.5002 33.0144 37.869 31.608 37.8751 30.1768C37.8751 24.3714 31.8832 19.0586 24.4401 19.0586C16.9969 19.0586 11.0117 24.3847 11.0117 30.1768C11.0166 31.6065 11.3806 33.0121 12.0703 34.2645C14.1075 32.5202 18.881 31.2753 24.4401 31.2753Z" fill="#56C2E8"/>
<path d="M24.4396 31.3231C29.9854 31.3231 34.7522 32.5481 36.7895 34.2858C37.4803 33.0455 37.8467 31.6509 37.8547 30.2313C37.8547 24.4658 31.8628 19.1797 24.4396 19.1797C17.0164 19.1797 11.0312 24.4658 11.0312 30.2313C11.0331 31.6509 11.3975 33.0465 12.0898 34.2858C14.1204 32.5481 18.8872 31.3231 24.4396 31.3231Z" fill="#5EC4E8"/>
<path d="M24.438 31.3565C29.9705 31.3565 34.7373 32.5749 36.7679 34.3058C37.4615 33.074 37.8282 31.685 37.8331 30.2713C37.8331 24.5458 31.8413 19.293 24.438 19.293C17.0348 19.293 11.043 24.5458 11.043 30.2713C11.0488 31.6841 11.413 33.0722 12.1015 34.3058C14.1387 32.6081 18.8923 31.3565 24.438 31.3565Z" fill="#65C6E9"/>
<path d="M24.4383 31.3922C29.9641 31.3922 34.7243 32.6039 36.7548 34.3216C37.4409 33.1014 37.8052 31.7268 37.8134 30.327C37.8134 24.6414 31.8216 19.4219 24.4383 19.4219C17.055 19.4219 11.0898 24.6215 11.0898 30.3137C11.0972 31.7136 11.4615 33.0884 12.1484 34.3082C14.1523 32.6106 18.9058 31.3922 24.4383 31.3922Z" fill="#6DC7EA"/>
<path d="M24.4383 31.4237C29.9574 31.4237 34.711 32.6288 36.7349 34.3331C37.4262 33.1151 37.7909 31.7391 37.7934 30.3386C37.7934 24.6863 31.8016 19.5 24.4383 19.5C17.075 19.5 11.0898 24.7062 11.0898 30.3585C11.0901 31.7585 11.4524 33.1346 12.1417 34.3531C14.1656 32.6088 18.9125 31.4237 24.4383 31.4237Z" fill="#74C9EA"/>
<path d="M24.437 31.4633C29.9495 31.4633 34.6963 32.6551 36.7202 34.3527C37.4044 33.1463 37.7688 31.785 37.7788 30.3981C37.7788 24.7858 31.787 19.6328 24.4636 19.6328C17.1403 19.6328 11.1484 24.7924 11.1484 30.3981C11.1522 31.785 11.5146 33.1473 12.2003 34.3527C14.1777 32.6551 18.9178 31.4633 24.437 31.4633Z" fill="#7ACBEB"/>
<path d="M24.4374 31.4967C29.9432 31.4967 34.6835 32.6818 36.7007 34.3662C37.3875 33.1729 37.7522 31.8216 37.7593 30.4448C37.7593 24.8724 31.7674 19.7461 24.4441 19.7461C17.1207 19.7461 11.1289 24.8724 11.1289 30.4448C11.136 31.8207 11.4984 33.1714 12.1808 34.3662C14.1914 32.6818 18.9249 31.4967 24.4374 31.4967Z" fill="#81CDEC"/>
<path d="M24.4379 31.5294C29.937 31.5294 34.6706 32.7078 36.6878 34.3789C37.3695 33.1935 37.732 31.8515 37.7397 30.4842C37.7397 24.9517 31.7812 19.832 24.4246 19.832C17.0679 19.832 11.1094 24.9317 11.1094 30.4842C11.1132 31.8521 11.4759 33.1951 12.1613 34.3789C14.2051 32.7078 18.932 31.5294 24.4379 31.5294Z" fill="#87CFEC"/>
<path d="M24.4381 31.569C29.9306 31.569 34.6509 32.7341 36.6681 34.3918C37.3502 33.2163 37.7128 31.8828 37.72 30.5238C37.72 25.0313 31.7681 19.9648 24.4381 19.9648C17.1081 19.9648 11.1562 25.0313 11.1562 30.5238C11.1611 31.8823 11.5215 33.2158 12.2015 34.3918C14.2187 32.7341 18.939 31.569 24.4381 31.569Z" fill="#8ED1ED"/>
<path d="M24.4377 31.6024C29.9235 31.6024 34.6371 32.7608 36.6544 34.4119C37.3345 33.2453 37.6972 31.9209 37.7063 30.5705C37.7063 25.1113 31.761 20.0781 24.4377 20.0781C17.1143 20.0781 11.1758 25.1179 11.1758 30.5705C11.1816 31.9204 11.542 33.2452 12.221 34.4119C14.2316 32.7608 18.9518 31.6024 24.4377 31.6024Z" fill="#94D3EE"/>
<path d="M24.438 31.6358C29.9171 31.6358 34.6241 32.7876 36.6347 34.4253C37.3272 33.272 37.7017 31.9557 37.7198 30.6105C37.7198 25.1913 31.7813 20.1914 24.4713 20.1914C17.1612 20.1914 11.2227 25.1979 11.2227 30.6105C11.2284 31.9521 11.589 33.2682 12.2679 34.4253C14.2452 32.7876 18.9588 31.6358 24.438 31.6358Z" fill="#9AD5EF"/>
<path d="M24.4396 31.6692C29.9121 31.6692 34.6124 32.8143 36.6163 34.4387C37.296 33.2938 37.659 31.9887 37.6682 30.6572C37.6682 25.2779 31.7429 20.3047 24.4396 20.3047C17.1362 20.3047 11.2109 25.2779 11.2109 30.6572C11.2168 31.9883 11.5777 33.2936 12.2562 34.4387C14.2601 32.8143 18.967 31.6692 24.4396 31.6692Z" fill="#A0D7F0"/>
<path d="M24.4391 31.7092C29.905 31.7092 34.5986 32.841 36.6025 34.4522C37.2777 33.3153 37.6385 32.0194 37.6478 30.6973C37.6478 25.3712 31.7292 20.418 24.4391 20.418C17.1491 20.418 11.2305 25.3579 11.2305 30.6973C11.2342 32.0193 11.5929 33.3161 12.2691 34.4522C14.273 32.841 18.9732 31.7092 24.4391 31.7092Z" fill="#A6D9F0"/>
<path d="M24.4387 31.7426C29.8979 31.7426 34.5849 32.8678 36.5821 34.4722C37.2622 33.3445 37.6256 32.0542 37.634 30.7373C37.634 25.4113 31.7221 20.5312 24.4387 20.5312C17.1553 20.5312 11.25 25.4446 11.25 30.7373C11.2544 32.053 11.6132 33.3432 12.2886 34.4722C14.2859 32.8678 18.9795 31.7426 24.4387 31.7426Z" fill="#ACDCF1"/>
<path d="M24.4382 31.776C29.8841 31.776 34.5711 32.8945 36.5684 34.4857C37.2422 33.3677 37.6032 32.0893 37.6136 30.784C37.6136 25.5179 31.7083 20.6445 24.4382 20.6445C17.1682 20.6445 11.2695 25.5245 11.2695 30.784C11.2753 32.0881 11.6317 33.3667 12.3015 34.4857C14.3054 32.8945 18.9857 31.776 24.4382 31.776Z" fill="#B2DEF2"/>
<path d="M24.4405 31.8087C29.8798 31.8087 34.5601 32.9205 36.5507 34.4717C37.2245 33.3635 37.5857 32.0936 37.5959 30.7967C37.5959 25.5772 31.6973 20.7305 24.4405 20.7305C17.1838 20.7305 11.2852 25.5772 11.2852 30.7967C11.2891 32.0936 11.6483 33.3646 12.3237 34.4717C14.321 32.9205 19.0013 31.8087 24.4405 31.8087Z" fill="#B8E0F3"/>
<path d="M24.4401 31.8506C29.8727 31.8506 34.5463 32.9491 36.5369 34.5136C37.2065 33.4137 37.5654 32.1529 37.5755 30.8653C37.5755 25.679 31.6902 20.8789 24.4401 20.8789C17.19 20.8789 11.3047 25.6923 11.3047 30.8653C11.3104 32.1535 11.6697 33.4155 12.3433 34.5136C14.3339 32.9491 19.0075 31.8506 24.4401 31.8506Z" fill="#BDE2F4"/>
<path d="M24.4397 31.884C29.8656 31.884 34.5326 32.9758 36.5165 34.547C37.1867 33.4572 37.5459 32.2047 37.5551 30.9253C37.5551 25.779 31.6765 20.9922 24.4397 20.9922C17.2029 20.9922 11.3242 25.7856 11.3242 30.9253C11.3301 32.2043 11.687 33.4571 12.3561 34.547C14.3468 32.9758 19.0137 31.884 24.4397 31.884Z" fill="#C3E5F5"/>
<path d="M24.4392 31.9424C29.8585 31.9424 34.5122 33.0276 36.5028 34.5722C37.1699 33.4907 37.529 32.2477 37.5414 30.9771C37.5414 25.8707 31.6694 21.1172 24.4392 21.1172C17.2091 21.1172 11.3438 25.8774 11.3438 30.9771C11.3473 32.2471 11.7022 33.4913 12.369 34.5722C14.3596 33.001 19.0199 31.9424 24.4392 31.9424Z" fill="#C9E7F5"/>
<path d="M24.4376 31.9434C29.8502 31.9434 34.4973 33.0153 36.4812 34.5465C37.1478 33.4771 37.5071 32.2448 37.5198 30.9847C37.5198 25.9116 31.6544 21.1914 24.4376 21.1914C17.2208 21.1914 11.3555 25.9516 11.3555 30.998C11.3616 32.2581 11.719 33.4916 12.3874 34.5598C14.3714 33.0286 19.025 31.9434 24.4376 31.9434Z" fill="#CEE9F6"/>
<path d="M24.4372 31.9885C29.8431 31.9885 34.4835 33.0537 36.4675 34.5783C37.131 33.5153 37.4881 32.2896 37.4994 31.0365C37.4994 26.01 31.6474 21.3164 24.4372 21.3164C17.227 21.3164 11.375 26.01 11.375 31.0365C11.3807 32.3006 11.743 33.5375 12.4202 34.605C14.4175 33.0537 19.0312 31.9885 24.4372 31.9885Z" fill="#D4ECF7"/>
<path d="M24.4399 32.0219C29.8392 32.0219 34.4729 33.0805 36.4236 34.5917C37.0883 33.5415 37.4458 32.3261 37.4555 31.0832C37.4555 26.09 31.6102 21.4297 24.4133 21.4297C17.2165 21.4297 11.3711 26.09 11.3711 31.0832C11.3814 32.333 11.7462 33.5543 12.423 34.605C14.4203 33.0805 19.0806 32.0219 24.4399 32.0219Z" fill="#DAEEF8"/>
<path d="M24.439 32.0553C29.8317 32.0553 34.4587 33.1072 36.4227 34.6052C37.0876 33.5645 37.4475 32.3582 37.4613 31.1232C37.4613 26.17 31.6159 21.543 24.4324 21.543C17.2489 21.543 11.4102 26.2033 11.4102 31.1232C11.4149 32.3557 11.7656 33.5621 12.4221 34.6052C14.4194 33.1072 19.0797 32.0553 24.439 32.0553Z" fill="#DFF1F9"/>
<path d="M24.4398 32.0953C29.8258 32.0953 34.4261 33.1339 36.4234 34.6186C37.0868 33.5874 37.4446 32.3894 37.4554 31.1633C37.4554 26.25 31.6233 21.6562 24.4464 21.6562C17.2696 21.6562 11.4375 26.2566 11.4375 31.1633C11.4426 32.3893 11.7983 33.5882 12.4628 34.6186C14.4201 33.1339 19.0804 32.0953 24.4398 32.0953Z" fill="#E5F3FA"/>
<path d="M24.4389 32.1287C29.8182 32.1287 34.4253 33.1607 36.4225 34.6386C37.0838 33.6163 37.4416 32.4275 37.4545 31.21C37.4545 26.3366 31.6291 21.7695 24.4655 21.7695C17.302 21.7695 11.4766 26.3366 11.4766 31.21C11.4847 32.4263 11.8379 33.6152 12.4952 34.6386C14.4192 33.1607 19.0795 32.1287 24.4389 32.1287Z" fill="#EBF6FB"/>
<path d="M24.4377 32.1621C29.8104 32.1621 34.4241 33.1874 36.3814 34.6521C37.0382 33.6379 37.3937 32.4582 37.4067 31.25C37.4067 26.4166 31.5946 21.8828 24.4377 21.8828C17.2808 21.8828 11.4688 26.4166 11.4688 31.2767C11.476 32.4847 11.8295 33.6654 12.4874 34.6787C14.4513 33.1874 19.0784 32.1621 24.4377 32.1621Z" fill="#F1F8FD"/>
<path d="M24.4373 32.1964C29.8033 32.1964 34.4237 33.215 36.361 34.6664C37.0232 33.6597 37.3794 32.4826 37.3863 31.2777C37.3863 26.4775 31.5809 21.957 24.4373 21.957C17.2937 21.957 11.4883 26.4642 11.4883 31.2777C11.4943 32.4746 11.8457 33.6443 12.5002 34.6464C14.4709 33.215 19.0779 32.1964 24.4373 32.1964Z" fill="#F7FBFE"/>
<path d="M24.4396 32.2351C29.7657 32.2351 34.386 33.2404 36.35 34.6851C37.0016 33.6957 37.3573 32.5409 37.3753 31.3563C37.3753 26.5961 31.5765 22.1289 24.4396 22.1289C17.3027 22.1289 11.5039 26.6028 11.5039 31.3563C11.5162 32.5408 11.8699 33.6966 12.5225 34.6851C14.4865 33.2737 19.0802 32.2351 24.4396 32.2351Z" fill="white"/>
<path d="M24.4385 27.482C20.1295 27.4423 15.8473 28.1635 11.7891 29.6124C12.8759 32.0533 14.6469 34.1269 16.8878 35.5821C19.1286 37.0373 21.7433 37.8117 24.4152 37.8117C27.0871 37.8117 29.7017 37.0373 31.9426 35.5821C34.1835 34.1269 35.9545 32.0533 37.0413 29.6124C32.9983 28.167 28.732 27.4459 24.4385 27.482Z" fill="#0083CA"/>
</g>
</g>
<defs>
<clipPath id="clip0_15872_18882">
<rect width="29.3333" height="29.0204" fill="white" transform="translate(9.83203 9.48828)"/>
</clipPath>
</defs>
</svg>
