<svg width="49" height="48" viewBox="0 0 49 48" fill="none" xmlns="http://www.w3.org/2000/svg">
<rect x="0.5" width="48" height="48" rx="24" fill="#F6F7FC"/>
<path fill-rule="evenodd" clip-rule="evenodd" d="M23.2115 9.55018C15.3036 9.90834 9.18383 16.6072 9.54232 24.5155C9.89881 32.421 16.5994 38.5408 24.5066 38.1823C32.4115 37.8241 38.5316 31.1246 38.1728 23.219C37.8266 15.5327 31.4869 9.53549 23.8714 9.53516C23.6524 9.53516 23.4325 9.54016 23.2115 9.55018Z" fill="white"/>
<path fill-rule="evenodd" clip-rule="evenodd" d="M23.2008 9.34705C15.4224 9.69753 9.35139 16.1044 9.33203 23.8086V23.8794C9.33237 24.09 9.33737 24.301 9.34705 24.5133C9.70989 32.5256 16.4992 38.7265 24.5136 38.3654C32.526 38.0039 38.7299 31.2132 38.3657 23.1991C38.0139 15.4111 31.5877 9.33203 23.8697 9.33203C23.6477 9.33203 23.4248 9.33704 23.2008 9.34705ZM24.93 36.6316C24.916 36.3038 25.397 36.2207 25.397 36.2207C29.6929 35.3755 28.4372 32.557 26.9158 31.12C26.2769 30.5142 20.2983 25.3564 20.2983 25.3564C14.5955 20.446 15.0531 16.614 15.0531 16.614C15.3268 11.8955 19.4575 10.7256 22.5825 10.9966C22.9466 11.0287 23.1492 11.2513 23.0852 11.5547C23.0161 11.8882 22.5321 11.9132 22.5321 11.9132C21.5387 11.9706 20.6491 12.0734 19.9735 12.5277C17.4541 14.2211 18.1994 17.103 21.555 20.3101C21.976 20.713 22.4259 21.1376 22.8859 21.5679C22.8859 21.5679 23.5618 22.164 24.9017 23.4394C27.4852 25.8197 28.8998 27.1031 28.8998 27.1031C33.4494 30.8927 31.8976 34.3565 30.1552 35.5608C28.8304 36.4791 27.361 36.9113 25.4337 37.0135C25.4174 37.0158 25.3993 37.0171 25.3806 37.0171C25.2037 37.0171 24.9437 36.909 24.93 36.6316ZM25.9936 22.6421C24.5189 22.3323 24.2185 20.9921 24.2185 20.9921C24.0987 20.5228 24.069 19.9293 24.1678 19.1723C24.3697 17.5868 24.7956 16.8407 25.2823 15.6124C25.9389 13.9618 24.343 12.9961 24.6084 12.3893C24.9659 11.5671 26.1041 12.6119 27.3752 12.6873C28.471 12.7484 29.1269 12.693 29.9771 12.8078C31.1103 12.9581 32.4615 13.3402 33.0634 14.0482C33.6158 14.6921 32.7723 15.4842 31.7559 14.9889C31.0165 14.628 30.0832 14.8487 30.6313 15.6214C31.2882 16.3567 31.6067 16.3788 32.2773 16.5537C34.1261 17.0413 34.1659 18.8128 32.9125 19.7294C31.4885 20.7725 30.0459 20.3412 29.4664 18.2944C29.179 17.275 28.4563 16.7546 27.719 17.0474C26.9843 17.3347 27.4182 18.6783 27.9767 19.9223C28.9467 22.3984 26.982 22.6527 26.2346 22.6527C26.1215 22.6527 26.0363 22.6467 25.9936 22.6421ZM20.581 36.1693C18.9781 36.0118 17.0605 35.5064 15.3928 34.0614C13.8581 32.7333 12.9061 30.9094 12.4461 29.3092C11.9721 27.6683 11.7755 25.7483 12.5546 25.9009C12.7949 25.9482 13.2092 27.0014 13.6611 27.7711C14.1268 28.5629 14.5043 29.0001 14.8628 29.2675C15.0237 29.3903 15.5714 28.171 16.3665 27.4784C16.8292 27.0975 17.3359 26.9657 17.417 28.1056C17.5184 29.5048 17.2654 31.1708 17.6736 31.1708C18.0565 31.1708 18.9147 30.8807 20.8076 30.7215C21.5199 30.6601 21.9238 30.7946 21.2449 31.7516C20.9068 32.2276 20.4541 32.9015 19.3827 33.6696C20.9889 35.1736 22.9179 34.9957 22.9523 35.6339C22.9736 36.0024 22.2526 36.2057 21.3047 36.2057C21.0743 36.2057 20.8307 36.194 20.581 36.1693Z" fill="#0046FF"/>
</svg>
