<svg width="16" height="16" viewBox="0 0 16 16" fill="none" xmlns="http://www.w3.org/2000/svg">
<g clip-path="url(#clip0_15593_408459)">
<path d="M13.1905 11.9156C13.1905 10.6993 13.1905 9.25332 13.1905 7.87038C13.1905 4.9981 10.8621 2.66992 7.98978 2.66992V2.66992C5.1175 2.66992 2.78906 4.99836 2.78906 7.87064V12.2681" stroke="#3B4044" stroke-width="1.48571" stroke-linecap="round"/>
<path d="M10.4004 9.86992C10.4004 9.20718 10.9376 8.66992 11.6004 8.66992H12.2004C12.8631 8.66992 13.4004 9.20718 13.4004 9.86992V12.2699C13.4004 12.9327 12.8631 13.4699 12.2004 13.4699H11.6004C10.9376 13.4699 10.4004 12.9327 10.4004 12.2699V9.86992Z" fill="#3B4044" stroke="#3B4044" stroke-width="1.08"/>
<path d="M5.58789 9.86992C5.58789 9.20718 5.05063 8.66992 4.38789 8.66992H3.78789C3.12515 8.66992 2.58789 9.20718 2.58789 9.86992V12.2699C2.58789 12.9327 3.12515 13.4699 3.78789 13.4699H4.38789C5.05063 13.4699 5.58789 12.9327 5.58789 12.2699V9.86992Z" fill="#3B4044" stroke="#3B4044" stroke-width="1.08"/>
</g>
<defs>
<clipPath id="clip0_15593_408459">
<rect width="16" height="16" fill="white"/>
</clipPath>
</defs>
</svg>
