<svg width="16" height="15" viewBox="0 0 16 15" fill="none" xmlns="http://www.w3.org/2000/svg">
<g clip-path="url(#clip0_16498_148198)">
<path fill-rule="evenodd" clip-rule="evenodd" d="M8 14C11.5899 14 14.5 11.0899 14.5 7.5C14.5 3.91015 11.5899 1 8 1C4.41015 1 1.5 3.91015 1.5 7.5C1.5 11.0899 4.41015 14 8 14ZM11.0446 6.6742C11.3065 6.42867 11.3197 6.01733 11.0742 5.75544C10.8287 5.49355 10.4173 5.48028 10.1554 5.7258L7.13333 8.55902L5.84456 7.3508C5.58267 7.10528 5.17133 7.11855 4.9258 7.38044C4.68028 7.64233 4.69355 8.05367 4.95544 8.2992L6.68877 9.9242C6.9388 10.1586 7.32787 10.1586 7.57789 9.9242L11.0446 6.6742Z" fill="#00AA02"/>
<path fill-rule="evenodd" clip-rule="evenodd" d="M6.24421 9.50742L4.95599 8.29971L4.95544 8.2992C4.69355 8.05367 4.68028 7.64233 4.9258 7.38044C5.17133 7.11855 5.58267 7.10528 5.84456 7.3508L5.84513 7.35133L7.13333 8.55902L10.1554 5.7258C10.4173 5.48028 10.8287 5.49355 11.0742 5.75544C11.3197 6.01733 11.3065 6.42867 11.0446 6.6742L8.02246 9.50742L8.02157 9.50825L7.57789 9.9242C7.32787 10.1586 6.9388 10.1586 6.68877 9.9242L6.24421 9.50742ZM14.5 7.5C14.5 11.0899 11.5899 14 8 14C4.41015 14 1.5 11.0899 1.5 7.5C1.5 3.91015 4.41015 1 8 1C11.5899 1 14.5 3.91015 14.5 7.5Z" fill="#00AA02"/>
</g>
<defs>
<clipPath id="clip0_16498_148198">
<rect width="15" height="15" fill="white" transform="translate(0.5)"/>
</clipPath>
</defs>
</svg>
