<svg width="16" height="16" viewBox="0 0 16 16" fill="none" xmlns="http://www.w3.org/2000/svg">
<g clip-path="url(#clip0_16498_148322)">
<path fill-rule="evenodd" clip-rule="evenodd" d="M8 14.5C11.5899 14.5 14.5 11.5899 14.5 8C14.5 4.41015 11.5899 1.5 8 1.5C4.41015 1.5 1.5 4.41015 1.5 8C1.5 11.5899 4.41015 14.5 8 14.5ZM8.00003 4.75C8.43081 4.75 8.78003 5.04101 8.78003 5.4V8.65C8.78003 9.00898 8.43081 9.3 8.00003 9.3C7.56925 9.3 7.22003 9.00899 7.22003 8.65V5.4C7.22003 5.04101 7.56925 4.75 8.00003 4.75ZM8.00003 11.51C8.43081 11.51 8.78003 11.1608 8.78003 10.73C8.78003 10.2992 8.43081 9.95 8.00003 9.95C7.56925 9.95 7.22003 10.2992 7.22003 10.73C7.22003 11.1608 7.56925 11.51 8.00003 11.51Z" fill="#E22A21"/>
</g>
<defs>
<clipPath id="clip0_16498_148322">
<rect width="15" height="15" fill="white" transform="translate(0.5 0.5)"/>
</clipPath>
</defs>
</svg>
