<svg width="28" height="28" viewBox="0 0 28 28" fill="none" xmlns="http://www.w3.org/2000/svg">
<g clip-path="url(#clip0_928_138205)">
<path d="M20.84 9.57895H7.16C5.96707 9.57895 5 10.4803 5 11.5921V20.9868C5 22.0987 5.96707 23 7.16 23H20.84C22.0329 23 23 22.0987 23 20.9868V11.5921C23 10.4803 22.0329 9.57895 20.84 9.57895Z" fill="#B4C4DF"/>
<path d="M15.04 16H8.96C8.42981 16 8 16.4701 8 17.05V23H8.96H15.04H16V17.05C16 16.4701 15.5702 16 15.04 16Z" fill="#8EA5CE"/>
<path d="M4.16683 10.3853C4.61803 9.38586 6.76944 4.99947 6.76944 4.99947C6.76944 4.99947 7.22049 4 8.1226 4C9.02471 4 14.9179 4 19.85 4C20.7521 4 21.2031 4.99947 21.2031 4.99947L23.8592 10.3853C23.8592 10.3853 24.4195 11.9958 23.3046 11.9958C22.1897 11.9958 5.97689 12.0053 4.75216 11.9958C3.52743 11.9863 4.16683 10.3853 4.16683 10.3853Z" fill="#576C91"/>
<path d="M22.0945 14.0006C21.0267 13.9828 19.9954 14.3897 19.2276 15.1321C18.4598 15.8746 18.0182 16.8911 18 17.9588C18.0013 18.6187 18.1709 19.2668 18.4924 19.8425L18.629 20.0663L19.8363 22.0414L21.4257 24.6443C21.4933 24.7521 21.5872 24.8406 21.6981 24.9023C21.8093 24.9641 21.9341 24.9971 22.061 24.9979C22.1879 24.9988 22.3132 24.9679 22.4253 24.9078C22.5374 24.8477 22.6321 24.7602 22.7015 24.6536L24.3513 22.0414L25.5582 20.0654C25.606 19.9923 25.6521 19.9178 25.6948 19.8417C26.0163 19.2659 26.1859 18.6179 26.1872 17.9579C26.1686 16.8907 25.727 15.8745 24.9596 15.1326C24.1922 14.3906 23.1617 13.9832 22.0945 14.0006Z" fill="#576C91"/>
<path d="M22.0338 19.9974C23.0736 19.9974 23.9163 19.1547 23.9163 18.1149C23.9163 17.0755 23.0736 16.2325 22.0338 16.2325C20.994 16.2325 20.1514 17.0755 20.1514 18.1149C20.1514 19.1547 20.994 19.9974 22.0338 19.9974Z" fill="white"/>
</g>
<defs>
<clipPath id="clip0_928_138205">
<rect width="28" height="28" fill="white"/>
</clipPath>
</defs>
</svg>
