<svg width="17" height="16" viewBox="0 0 17 16" fill="none" xmlns="http://www.w3.org/2000/svg">
<g clip-path="url(#clip0_3397_46502)">
<path fill-rule="evenodd" clip-rule="evenodd" d="M8.50065 14.6663C12.1825 14.6663 15.1673 11.6816 15.1673 7.99967C15.1673 4.31778 12.1825 1.33301 8.50065 1.33301C4.81875 1.33301 1.83398 4.31778 1.83398 7.99967C1.83398 11.6816 4.81875 14.6663 8.50065 14.6663ZM11.6233 7.1527C11.8919 6.90088 11.9055 6.47899 11.6537 6.21038C11.4019 5.94177 10.98 5.92816 10.7114 6.17998L7.61176 9.08585L6.28995 7.84665C6.02134 7.59483 5.59945 7.60844 5.34763 7.87705C5.09581 8.14566 5.10942 8.56755 5.37802 8.81937L7.1558 10.486C7.41224 10.7264 7.81128 10.7264 8.06772 10.486L11.6233 7.1527Z" fill="#00AA02"/>
<path fill-rule="evenodd" clip-rule="evenodd" d="M6.69984 10.0586L5.37859 8.81989L5.37802 8.81937C5.10942 8.56755 5.09581 8.14566 5.34763 7.87705C5.59945 7.60844 6.02134 7.59483 6.28995 7.84665L6.29052 7.84719L7.61176 9.08585L10.7114 6.17998C10.98 5.92816 11.4019 5.94177 11.6537 6.21038C11.9055 6.47899 11.8919 6.90088 11.6233 7.1527L8.52368 10.0586L8.52278 10.0594L8.06772 10.486C7.81128 10.7264 7.41224 10.7264 7.1558 10.486L6.69984 10.0586ZM15.1673 7.99967C15.1673 11.6816 12.1825 14.6663 8.50065 14.6663C4.81875 14.6663 1.83398 11.6816 1.83398 7.99967C1.83398 4.31778 4.81875 1.33301 8.50065 1.33301C12.1825 1.33301 15.1673 4.31778 15.1673 7.99967Z" fill="#00AA02"/>
</g>
<defs>
<clipPath id="clip0_3397_46502">
<rect width="16" height="16" fill="white" transform="translate(0.5)"/>
</clipPath>
</defs>
</svg>
