<svg width="17" height="16" viewBox="0 0 17 16" fill="none" xmlns="http://www.w3.org/2000/svg">
<g clip-path="url(#clip0_3397_75026)">
<path fill-rule="evenodd" clip-rule="evenodd" d="M8.50065 14.6663C12.1825 14.6663 15.1673 11.6816 15.1673 7.99967C15.1673 4.31778 12.1825 1.33301 8.50065 1.33301C4.81875 1.33301 1.83398 4.31778 1.83398 7.99967C1.83398 11.6816 4.81875 14.6663 8.50065 14.6663ZM8.50068 4.66634C8.94251 4.66634 9.30068 4.96482 9.30068 5.33301V8.66634C9.30068 9.03453 8.94251 9.33301 8.50068 9.33301C8.05886 9.33301 7.70068 9.03453 7.70068 8.66634V5.33301C7.70068 4.96482 8.05886 4.66634 8.50068 4.66634ZM8.50068 11.5997C8.94251 11.5997 9.30068 11.2415 9.30068 10.7997C9.30068 10.3578 8.94251 9.99967 8.50068 9.99967C8.05886 9.99967 7.70068 10.3578 7.70068 10.7997C7.70068 11.2415 8.05886 11.5997 8.50068 11.5997Z" fill="#E22A21"/>
</g>
<defs>
<clipPath id="clip0_3397_75026">
<rect width="16" height="16" fill="white" transform="translate(0.5)"/>
</clipPath>
</defs>
</svg>
