<svg width="15" height="14" viewBox="0 0 15 14" fill="none" xmlns="http://www.w3.org/2000/svg">
<path fill-rule="evenodd" clip-rule="evenodd" d="M7.50065 13.6667C11.1825 13.6667 14.1673 10.6819 14.1673 7.00002C14.1673 3.31813 11.1825 0.333359 7.50065 0.333359C3.81875 0.333359 0.833984 3.31813 0.833984 7.00002C0.833984 10.6819 3.81875 13.6667 7.50065 13.6667ZM7.50068 3.66669C7.94251 3.66669 8.30068 3.96517 8.30068 4.33336V7.66669C8.30068 8.03488 7.94251 8.33336 7.50068 8.33336C7.05886 8.33336 6.70068 8.03488 6.70068 7.66669V4.33336C6.70068 3.96517 7.05886 3.66669 7.50068 3.66669ZM7.50068 10.6C7.94251 10.6 8.30068 10.2419 8.30068 9.80002C8.30068 9.3582 7.94251 9.00002 7.50068 9.00002C7.05886 9.00002 6.70068 9.3582 6.70068 9.80002C6.70068 10.2419 7.05886 10.6 7.50068 10.6Z" fill="#E22A21"/>
</svg>
