<svg width="15" height="14" viewBox="0 0 15 14" fill="none" xmlns="http://www.w3.org/2000/svg">
<path fill-rule="evenodd" clip-rule="evenodd" d="M7.49967 13.6667C11.1816 13.6667 14.1663 10.6819 14.1663 7C14.1663 3.3181 11.1816 0.333328 7.49967 0.333328C3.81778 0.333328 0.833008 3.3181 0.833008 7C0.833008 10.6819 3.81778 13.6667 7.49967 13.6667ZM10.6223 6.15302C10.8909 5.9012 10.9045 5.47931 10.6527 5.2107C10.4009 4.94209 9.97899 4.92848 9.71038 5.1803L6.61079 8.08617L5.28897 6.84697C5.02036 6.59515 4.59847 6.60876 4.34665 6.87737C4.09483 7.14598 4.10844 7.56787 4.37705 7.81969L6.15483 9.48635C6.41126 9.72676 6.81031 9.72676 7.06675 9.48635L10.6223 6.15302Z" fill="#00AA02"/>
<path fill-rule="evenodd" clip-rule="evenodd" d="M5.69886 9.05889L4.37761 7.82021L4.37705 7.81969C4.10844 7.56787 4.09483 7.14598 4.34665 6.87737C4.59847 6.60876 5.02036 6.59515 5.28897 6.84697L5.28955 6.84751L6.61079 8.08617L9.71038 5.1803C9.97899 4.92848 10.4009 4.94209 10.6527 5.2107C10.9045 5.47931 10.8909 5.9012 10.6223 6.15302L7.52271 9.05889L7.5218 9.05974L7.06675 9.48635C6.81031 9.72676 6.41126 9.72676 6.15483 9.48635L5.69886 9.05889ZM14.1663 7C14.1663 10.6819 11.1816 13.6667 7.49967 13.6667C3.81778 13.6667 0.833008 10.6819 0.833008 7C0.833008 3.3181 3.81778 0.333328 7.49967 0.333328C11.1816 0.333328 14.1663 3.3181 14.1663 7Z" fill="#00AA02"/>
</svg>
