<svg width="28" height="28" viewBox="0 0 28 28" fill="none" xmlns="http://www.w3.org/2000/svg">
<path d="M23.8429 20.6269L15.6715 24.6832C14.6219 25.208 13.3808 25.208 12.3313 24.6832L4.15984 20.6269C2.98535 20.0438 2.96869 18.3697 4.13485 17.77L13.2642 13.064C13.7223 12.8224 14.2721 12.8224 14.7302 13.064L23.8595 17.77C25.0257 18.3697 25.0174 20.0438 23.8346 20.6269H23.8429Z" fill="#FFD874"/>
<path d="M23.8429 15.5097L14.7135 20.0408C14.2637 20.2657 13.739 20.2657 13.2892 20.0408L4.15984 15.5097C2.98535 14.9267 2.96869 13.2525 4.13485 12.6528L13.2642 7.94679C13.7223 7.70524 14.2721 7.70524 14.7302 7.94679L23.8595 12.6528C25.0257 13.2525 25.0174 14.9267 23.8346 15.5097H23.8429Z" fill="#F4A800"/>
<path d="M23.8429 10.4031L14.7135 14.9342C14.2637 15.159 13.739 15.159 13.2892 14.9342L4.15984 10.4031C2.98535 9.82002 2.96869 8.14585 4.13485 7.54615L12.2729 3.34823C13.3558 2.79017 14.6386 2.79017 15.7214 3.34823L23.8595 7.54615C25.0257 8.14585 25.0174 9.82002 23.8346 10.4031H23.8429Z" fill="#FFD874"/>
<path d="M11.748 9.01562H16.248" stroke="white" stroke-linecap="round" stroke-linejoin="round"/>
<path d="M13.998 6.76562L13.998 11.2656" stroke="white" stroke-linecap="round" stroke-linejoin="round"/>
</svg>
