<svg width="28" height="28" viewBox="0 0 28 28" fill="none" xmlns="http://www.w3.org/2000/svg">
<path d="M11.1953 2H20C21.6569 2 23 3.34315 23 5V22C23 23.6569 21.6569 25 20 25H8C6.34315 25 5 23.6569 5 22V8.1953C5 7.48038 5.284 6.79474 5.78953 6.28921L9.28928 2.78951C9.7948 2.284 10.4804 2 11.1953 2Z" fill="#FFC183"/>
<path fill-rule="evenodd" clip-rule="evenodd" d="M10.5475 10.6188C10.7287 10.4013 11.0489 10.4557 11.3025 10.5826C11.6287 10.7456 12.0213 10.7638 12.3475 10.5644C12.6737 10.3832 12.867 10.045 12.8851 9.68255C12.9032 9.41074 13.0301 9.10872 13.3019 9.05436C13.5193 9.01812 13.7549 9 13.9844 9C14.2744 9 14.5401 9.01812 14.8119 9.07248C15.0838 9.12685 15.1925 9.41678 15.2106 9.68255C15.2287 10.0268 15.4281 10.3651 15.7482 10.5463C16.0683 10.7275 16.4307 10.7275 16.7388 10.5826C16.9744 10.4738 17.2945 10.4376 17.4576 10.6369C17.7838 11.0356 18.0314 11.4826 18.2126 11.9718C18.3032 12.2255 18.122 12.455 17.9046 12.6181C17.6327 12.8174 17.4515 13.1376 17.4515 13.5C17.4515 13.8624 17.6327 14.1826 17.9046 14.3819C18.122 14.5268 18.3032 14.7805 18.2126 15.0282C18.0314 15.5114 17.7777 15.9644 17.4576 16.3631C17.2945 16.5624 16.9925 16.5443 16.7388 16.4356C16.4307 16.2906 16.0744 16.3087 15.7482 16.4899C15.422 16.6711 15.2468 16.9913 15.2106 17.3356C15.1925 17.5893 15.0656 17.8732 14.8119 17.9275C14.5401 17.9819 14.2744 18 13.9844 18C13.7489 18 13.5193 17.9819 13.3019 17.9456C13.0301 17.9094 12.9032 17.6013 12.8851 17.3356C12.867 16.9913 12.6676 16.6711 12.3475 16.4718C12.0274 16.2725 11.6287 16.2906 11.3025 16.4537C11.0489 16.5805 10.7468 16.6349 10.5656 16.4174C10.2395 16.0369 9.97369 15.5899 9.79248 15.1007C9.70188 14.8289 9.9012 14.5812 10.1368 14.4181C10.4448 14.2188 10.6381 13.8987 10.6381 13.5C10.6381 13.1013 10.4388 12.7812 10.1368 12.5819C9.9012 12.4369 9.68376 12.1651 9.79248 11.8993C9.95557 11.4523 10.2274 11.0174 10.5475 10.6188ZM14.075 14.9557C14.8663 14.9557 15.5126 14.3094 15.5126 13.5181C15.5126 12.7268 14.8663 12.0805 14.075 12.0805C13.2838 12.0805 12.6374 12.7268 12.6374 13.5181C12.6374 14.3094 13.2838 14.9557 14.075 14.9557Z" fill="#EE8B28"/>
<path d="M22 27C24.7614 27 27 24.7614 27 22C27 19.2386 24.7614 17 22 17C19.2386 17 17 19.2386 17 22C17 24.7614 19.2386 27 22 27Z" fill="#AA5A09"/>
<path d="M19.875 21.7111L21.484 23.3201L24.1244 20.6797" stroke="white" stroke-linecap="round" stroke-linejoin="round"/>
</svg>
