<svg width="28" height="28" viewBox="0 0 28 28" fill="none" xmlns="http://www.w3.org/2000/svg">
<path d="M16.8047 2H8C6.34315 2 5 3.34315 5 5V22C5 23.6569 6.34315 25 8 25H20C21.6569 25 23 23.6569 23 22V8.1953C23 7.48038 22.716 6.79474 22.2105 6.28921L18.7107 2.78951C18.2052 2.284 17.5196 2 16.8047 2Z" fill="#FFC1E6"/>
<path d="M11.1953 2H20C21.6569 2 23 3.34315 23 5V22C23 23.6569 21.6569 25 20 25H8C6.34315 25 5 23.6569 5 22V8.1953C5 7.48038 5.284 6.79474 5.78953 6.28921L9.28928 2.78951C9.7948 2.284 10.4804 2 11.1953 2Z" fill="#FFC1E6"/>
<path d="M8 11.6016C11.3137 8.28785 16.6863 8.28785 20 11.6016" stroke="#FF64C0" stroke-width="1.66154" stroke-linecap="round"/>
<path d="M10.9512 13.8145C12.6198 12.1458 15.3251 12.1458 16.9937 13.8145" stroke="#FF64C0" stroke-width="1.66154" stroke-linecap="round"/>
<circle cx="14.081" cy="16.6885" r="0.856951" fill="#FF64C0" stroke="#FF64C0" stroke-width="0.588819"/>
</svg>
