<svg width="28" height="28" viewBox="0 0 28 28" fill="none" xmlns="http://www.w3.org/2000/svg">
<path d="M4 8.16176C4 7.70447 4.23668 7.27976 4.62558 7.03919L13.3056 1.6698C13.7311 1.40657 14.2689 1.40657 14.6944 1.6698L23.3744 7.03919C23.7633 7.27976 24 7.70447 24 8.16176V23.0202C24 23.7493 23.409 24.3402 22.68 24.3402H5.32C4.59098 24.3402 4 23.7493 4 23.0202V8.16176Z" fill="#79D5CF"/>
<path d="M8 12.6719C11.3137 9.35817 16.6863 9.35816 20 12.6719" stroke="#08B6AC" stroke-width="1.66154" stroke-linecap="round"/>
<path d="M10.9512 14.8848C12.6198 13.2162 15.3251 13.2162 16.9937 14.8848" stroke="#08B6AC" stroke-width="1.66154" stroke-linecap="round"/>
<circle cx="14.081" cy="17.7588" r="0.856951" fill="#08B6AC" stroke="#08B6AC" stroke-width="0.588819"/>
<path d="M21.3105 26.7578C24.072 26.7578 26.3105 24.5192 26.3105 21.7578C26.3105 18.9964 24.072 16.7578 21.3105 16.7578C18.5491 16.7578 16.3105 18.9964 16.3105 21.7578C16.3105 24.5192 18.5491 26.7578 21.3105 26.7578Z" fill="#059183"/>
<path d="M23.1855 21.4828C23.1855 20.9078 22.723 20.4453 22.148 20.4453H20.373H19.4355L20.373 19.5703" stroke="white" stroke-width="0.8125" stroke-linecap="round" stroke-linejoin="round"/>
<path d="M19.4355 22.0273C19.4355 22.6023 19.898 23.0648 20.473 23.0648H22.248M22.248 23.0711H23.1855L22.248 23.9461" stroke="white" stroke-width="0.8125" stroke-linecap="round" stroke-linejoin="round"/>
</svg>
