<svg width="28" height="28" viewBox="0 0 28 28" fill="none" xmlns="http://www.w3.org/2000/svg">
<path d="M4 8.62075C4 8.16346 4.23668 7.73874 4.62558 7.49817L13.3056 2.12878C13.7311 1.86555 14.2689 1.86555 14.6944 2.12878L23.3744 7.49817C23.7633 7.73874 24 8.16346 24 8.62075V23.4792C24 24.2082 23.409 24.7992 22.68 24.7992H5.32C4.59098 24.7992 4 24.2082 4 23.4792V8.62075Z" fill="#FFC1E6"/>
<mask id="path-2-inside-1_5274_262926" fill="white">
<path d="M9.93475 11.531V15.8788C9.93475 16.9658 10.2971 17.6179 11.2246 17.6179C12.326 17.6179 12.7173 17.0962 12.7173 15.6904V11.531H14.1376V15.7773C14.1376 17.8353 13.0941 18.7194 11.2246 18.7194C9.39853 18.7194 8.5 17.8498 8.5 15.7049V11.531H9.93475Z"/>
<path d="M16.5727 9.77734H17.7466V11.531H19.5001V12.6469H17.7466V14.386H16.5727V12.6469H14.8191V11.531H16.5727V9.77734Z"/>
</mask>
<path d="M9.93475 11.531V15.8788C9.93475 16.9658 10.2971 17.6179 11.2246 17.6179C12.326 17.6179 12.7173 17.0962 12.7173 15.6904V11.531H14.1376V15.7773C14.1376 17.8353 13.0941 18.7194 11.2246 18.7194C9.39853 18.7194 8.5 17.8498 8.5 15.7049V11.531H9.93475Z" fill="#FF64C0"/>
<path d="M16.5727 9.77734H17.7466V11.531H19.5001V12.6469H17.7466V14.386H16.5727V12.6469H14.8191V11.531H16.5727V9.77734Z" fill="#FF64C0"/>
<path d="M9.93475 11.531H42.9347V-21.469H9.93475V11.531ZM12.7173 11.531V-21.469H-20.2827V11.531H12.7173ZM14.1376 11.531H47.1376V-21.469H14.1376V11.531ZM8.5 11.531V-21.469H-24.5V11.531H8.5ZM16.5727 9.77734V-23.2227H-16.4273V9.77734H16.5727ZM17.7466 9.77734H50.7466V-23.2227H17.7466V9.77734ZM17.7466 11.531H-15.2534V44.531H17.7466V11.531ZM19.5001 11.531H52.5001V-21.469H19.5001V11.531ZM19.5001 12.6469V45.6469H52.5001V12.6469H19.5001ZM17.7466 12.6469V-20.3531H-15.2534V12.6469H17.7466ZM17.7466 14.386V47.386H50.7466V14.386H17.7466ZM16.5727 14.386H-16.4273V47.386H16.5727V14.386ZM16.5727 12.6469H49.5727V-20.3531H16.5727V12.6469ZM14.8191 12.6469H-18.1809V45.6469H14.8191V12.6469ZM14.8191 11.531V-21.469H-18.1809V11.531H14.8191ZM16.5727 11.531V44.531H49.5727V11.531H16.5727ZM-23.0653 11.531V15.8788H42.9347V11.531H-23.0653ZM-23.0653 15.8788C-23.0653 18.991 -22.7515 27.4712 -16.9185 35.9139C-9.47753 46.6839 1.95569 50.6179 11.2246 50.6179V-15.3821C14.8391 -15.3821 19.6725 -14.7413 24.7959 -12.3066C30.1111 -9.78075 34.3653 -5.96855 37.3822 -1.60198C42.8022 6.24294 42.9347 13.8536 42.9347 15.8788H-23.0653ZM11.2246 50.6179C16.4391 50.6179 29.3014 49.313 38.5408 37.3015C45.8714 27.7714 45.7173 17.5787 45.7173 15.6904H-20.2827C-20.2827 15.2078 -20.6325 5.9789 -13.7728 -2.93883C-5.00443 -14.338 7.11143 -15.3821 11.2246 -15.3821V50.6179ZM45.7173 15.6904V11.531H-20.2827V15.6904H45.7173ZM12.7173 44.531H14.1376V-21.469H12.7173V44.531ZM-18.8624 11.531V15.7773H47.1376V11.531H-18.8624ZM-18.8624 15.7773C-18.8624 11.6054 -17.7611 2.23062 -9.55836 -5.70191C-1.56255 -13.4343 7.51952 -14.2806 11.2246 -14.2806V51.7194C16.7992 51.7194 27.3377 50.431 36.3226 41.7421C45.5145 32.8531 47.1376 22.0073 47.1376 15.7773H-18.8624ZM11.2246 -14.2806C15.0053 -14.2806 25.0204 -13.3785 33.3086 -4.49333C41.1005 3.85978 41.5 13.1055 41.5 15.7049H-24.5C-24.5 20.4492 -23.6512 31.2022 -14.9536 40.5263C-5.75957 50.3825 5.6178 51.7194 11.2246 51.7194V-14.2806ZM41.5 15.7049V11.531H-24.5V15.7049H41.5ZM16.5727 42.7773H17.7466V-23.2227H16.5727V42.7773ZM-15.2534 9.77734V11.531H50.7466V9.77734H-15.2534ZM17.7466 44.531H19.5001V-21.469H17.7466V44.531ZM-13.4999 11.531V12.6469H52.5001V11.531H-13.4999ZM19.5001 -20.3531H17.7466V45.6469H19.5001V-20.3531ZM-15.2534 12.6469V14.386H50.7466V12.6469H-15.2534ZM17.7466 -18.614H16.5727V47.386H17.7466V-18.614ZM49.5727 14.386V12.6469H-16.4273V14.386H49.5727ZM16.5727 -20.3531H14.8191V45.6469H16.5727V-20.3531ZM47.8191 12.6469V11.531H-18.1809V12.6469H47.8191ZM14.8191 44.531H16.5727V-21.469H14.8191V44.531ZM49.5727 11.531V9.77734H-16.4273V11.531H49.5727ZM8.5 44.531H9.93475V-21.469H8.5V44.531Z" fill="#FF64C0" mask="url(#path-2-inside-1_5274_262926)"/>
<path d="M21.1073 25.6966C22.0313 25.6966 22.8876 25.4066 23.5901 24.9127L24.9121 26.2346C25.2034 26.526 25.6757 26.526 25.9671 26.2346C26.2584 25.9433 26.2584 25.471 25.9671 25.1797L24.6451 23.8577C25.139 23.1552 25.429 22.2989 25.429 21.3749C25.429 18.988 23.4941 17.0531 21.1073 17.0531C18.7205 17.0531 16.7855 18.988 16.7855 21.3749C16.7855 23.7617 18.7205 25.6966 21.1073 25.6966ZM23.9371 21.3749C23.9371 22.9377 22.6702 24.2047 21.1073 24.2047C19.5444 24.2047 18.2775 22.9377 18.2775 21.3749C18.2775 19.812 19.5444 18.5451 21.1073 18.5451C22.6702 18.5451 23.9371 19.812 23.9371 21.3749Z" fill="#C12883" stroke="#C12883" stroke-width="0.3" stroke-linecap="round" stroke-linejoin="round"/>
<path d="M23.967 21.378C23.967 22.9556 22.6881 24.2345 21.1104 24.2345C19.5328 24.2345 18.2539 22.9556 18.2539 21.378C18.2539 19.8004 19.5328 18.5215 21.1104 18.5215C22.6881 18.5215 23.967 19.8004 23.967 21.378Z" fill="white" fill-opacity="0.2"/>
</svg>
